<svg width="133" height="92" viewBox="0 0 133 92" fill="none" xmlns="http://www.w3.org/2000/svg">
<g opacity="0.4">
<path d="M24.6797 60.0955C21.7711 67.3108 17.1878 74.4395 11.0619 81.3073C9.12276 83.4807 8.85833 86.6101 10.4448 89.0443C11.679 90.9568 13.7061 92 15.9096 92C16.5267 92 17.1437 91.9568 17.7608 91.7392C30.7174 88.0011 60.9945 74.7438 61.8319 32.2331C62.1401 15.8462 49.9767 1.76301 34.1551 0.154731C25.385 -0.714649 16.659 2.11052 10.1804 7.84819C3.7021 13.6294 0 21.8882 0 30.4945C0 44.8385 10.3128 57.4005 24.6797 60.0955Z" fill="#0F2F65" fill-opacity="0.3"/>
<path d="M104.493 0.154731C95.7668 -0.714649 87.0408 2.11052 80.5625 7.84819C74.0839 13.6294 70.3818 21.8882 70.3818 30.4945C70.3818 44.8385 80.6946 57.4005 95.0618 60.0955C92.153 67.3108 87.5697 74.4395 81.4437 81.3073C79.5046 83.4806 79.2402 86.6101 80.8269 89.0443C82.0608 90.9568 84.0882 92 86.2917 92C86.9085 92 87.5256 91.9567 88.1426 91.7392C101.1 88.0011 131.376 74.7437 132.214 32.233V31.6247C132.214 15.4984 120.182 1.76301 104.493 0.154731Z" fill="#0F2F65" fill-opacity="0.3"/>
</g>
</svg>
