<svg width="33" height="32" viewBox="0 0 33 32" fill="none" xmlns="http://www.w3.org/2000/svg">
<path fill-rule="evenodd" clip-rule="evenodd" d="M13.5408 2.42998C15.4838 2.30082 17.5148 2.30055 19.4618 2.42998C25.5506 2.83472 30.3817 7.74978 30.7789 13.8962C30.8532 15.0461 30.8532 16.2354 30.7789 17.3853C30.3817 23.5317 25.5506 28.4467 19.4618 28.8515C17.5148 28.9809 15.4838 28.9806 13.5408 28.8515C12.7876 28.8014 11.9677 28.6233 11.2458 28.3261C10.9284 28.1953 10.7129 28.1069 10.5552 28.049C10.4468 28.1235 10.3027 28.2294 10.093 28.3841C9.03645 29.1631 7.70253 29.7097 5.80953 29.6637L5.74855 29.6622C5.38337 29.6534 4.99411 29.6442 4.67666 29.5827C4.2943 29.5087 3.82125 29.3238 3.52518 28.819C3.20294 28.2697 3.33214 27.7141 3.45714 27.3642C3.57511 27.0339 3.77962 26.6466 3.98853 26.251L4.01717 26.1967C4.63894 25.0185 4.81215 24.0555 4.47971 23.4135C3.36994 21.7383 2.37159 19.6738 2.2237 17.3853C2.14939 16.2354 2.14939 15.0461 2.2237 13.8962C2.62093 7.74978 7.45196 2.83472 13.5408 2.42998ZM10.8346 12.6663C10.8346 13.2186 11.2824 13.6663 11.8346 13.6663H16.5013C17.0536 13.6663 17.5013 13.2186 17.5013 12.6663C17.5013 12.1141 17.0536 11.6663 16.5013 11.6663H11.8346C11.2824 11.6663 10.8346 12.1141 10.8346 12.6663ZM10.8346 19.333C10.8346 19.8853 11.2824 20.333 11.8346 20.333H21.168C21.7202 20.333 22.168 19.8853 22.168 19.333C22.168 18.7807 21.7202 18.333 21.168 18.333H11.8346C11.2824 18.333 10.8346 18.7807 10.8346 19.333Z" fill="white"/>
</svg>
