<svg width="169" height="169" viewBox="0 0 169 169" fill="none" xmlns="http://www.w3.org/2000/svg">
<path d="M145.313 91.6348C145.46 90.3231 145.819 89.2229 146.388 88.3342C146.957 87.4455 147.647 86.7446 148.456 86.2317C149.263 85.732 150.12 85.3921 151.025 85.212C151.931 85.0319 152.788 84.9872 153.596 85.0779L154.034 85.127C154.935 85.2282 155.807 85.4669 156.65 85.8434C157.492 86.233 158.237 86.7661 158.886 87.4427C159.534 88.1193 160.019 88.9385 160.34 89.9004C160.674 90.877 160.769 91.9946 160.628 93.2534C160.481 94.5652 160.115 95.6779 159.529 96.5916C158.955 97.5201 158.205 98.2274 157.278 98.7138C156.365 99.2016 155.332 99.4412 154.179 99.4325L154.498 96.5903C155.172 96.5587 155.755 96.3827 156.248 96.0622C156.751 95.7565 157.147 95.3381 157.435 94.8069C157.736 94.2771 157.926 93.6611 158.005 92.9589C158.085 92.2434 158.031 91.5932 157.841 91.0085C157.665 90.4252 157.373 89.9228 156.964 89.5012C156.555 89.0796 156.057 88.7353 155.47 88.4681C154.881 88.2142 154.216 88.0456 153.474 87.9623C152.758 87.882 152.085 87.9003 151.455 88.0174C150.823 88.1477 150.254 88.379 149.747 88.7112C149.253 89.0449 148.849 89.4759 148.535 90.0041C148.219 90.5456 148.02 91.1873 147.937 91.9293C147.815 93.0159 147.977 93.9599 148.424 94.7614C148.882 95.5776 149.586 96.1195 150.536 96.3871L150.217 99.2292C149.198 98.9807 148.29 98.5233 147.493 97.8568C146.695 97.1904 146.094 96.3313 145.689 95.2795C145.284 94.2277 145.158 93.0129 145.313 91.6348Z" fill="#091E42"/>
<path d="M140.201 109.843C140.756 108.646 141.45 107.703 142.282 107.016C143.109 106.341 143.996 105.87 144.942 105.603C145.895 105.354 146.832 105.266 147.753 105.34C148.68 105.431 149.513 105.648 150.251 105.99L150.65 106.175C151.461 106.55 152.198 107.068 152.862 107.728C153.538 108.394 154.069 109.168 154.453 110.052C154.832 110.947 155.013 111.92 154.997 112.97C154.993 114.026 154.719 115.141 154.176 116.315C153.638 117.476 152.967 118.4 152.165 119.086C151.374 119.778 150.518 120.263 149.595 120.541C148.667 120.832 147.731 120.934 146.786 120.849C145.853 120.77 144.981 120.542 144.17 120.167L143.771 119.982C143.033 119.64 142.332 119.139 141.668 118.479C141.01 117.837 140.471 117.065 140.051 116.165C139.636 115.283 139.422 114.302 139.408 113.223C139.388 112.156 139.652 111.029 140.201 109.843ZM142.597 110.953C142.283 111.63 142.124 112.291 142.119 112.936C142.109 113.592 142.229 114.206 142.479 114.777C142.735 115.366 143.091 115.883 143.545 116.329C144.007 116.792 144.546 117.167 145.163 117.453C145.828 117.761 146.487 117.941 147.139 117.993C147.785 118.057 148.403 117.991 148.994 117.794C149.579 117.61 150.113 117.299 150.595 116.861C151.077 116.423 151.472 115.871 151.78 115.205C152.094 114.528 152.262 113.864 152.284 113.213C152.306 112.562 152.201 111.948 151.969 111.37C151.732 110.804 151.382 110.29 150.921 109.826C150.454 109.375 149.888 108.995 149.222 108.687C148.605 108.401 147.974 108.226 147.327 108.162C146.688 108.116 146.063 108.179 145.454 108.353C144.851 108.544 144.303 108.855 143.809 109.288C143.315 109.72 142.911 110.275 142.597 110.953Z" fill="#091E42"/>
<path d="M133.746 122.1L144.256 132.234L141.021 135.589L127.948 131.512L127.49 131.987L127.509 131.449L136.579 140.196L134.718 142.125L124.209 131.99L127.457 128.621L140.53 132.698L141.002 132.208L140.984 132.746L131.914 124L133.746 122.1Z" fill="#091E42"/>
<path d="M115.795 137.568L121.873 148.491L119.392 149.872L113.314 138.949L115.795 137.568ZM125.366 146.089L126.582 148.274L116.725 153.759L115.51 151.574L125.366 146.089Z" fill="#091E42"/>
<path d="M105.365 142.978L103.735 158.317L99.2096 159.343L90.9899 146.235L93.8377 145.59L100.868 156.978L99.776 156.774L102.214 156.222L101.297 156.881L102.596 143.606L105.365 142.978ZM102.829 147.531L102.482 150.071L96.7079 151.379L95.3193 149.233L102.829 147.531Z" fill="#091E42"/>
<path d="M78.5676 145.553C79.8833 145.66 80.994 145.985 81.8998 146.526C82.8056 147.068 83.5273 147.735 84.065 148.528C84.5893 149.32 84.9554 150.165 85.1633 151.065C85.3712 151.965 85.4422 152.82 85.3764 153.631L85.3408 154.069C85.2674 154.973 85.0556 155.852 84.7053 156.707C84.3418 157.56 83.8318 158.321 83.1755 158.99C82.5193 159.659 81.7154 160.169 80.7639 160.52C79.798 160.883 78.6838 161.014 77.4213 160.911C76.1056 160.804 74.9821 160.472 74.0508 159.915C73.1051 159.37 72.375 158.642 71.8604 157.731C71.3447 156.833 71.0734 155.807 71.0466 154.655L73.8972 154.886C73.9496 155.559 74.1435 156.137 74.4789 156.619C74.8 157.113 75.2304 157.496 75.7702 157.767C76.309 158.052 76.9305 158.223 77.6349 158.28C78.3525 158.338 79.0007 158.263 79.5793 158.056C80.1569 157.862 80.6501 157.555 81.0589 157.133C81.4677 156.711 81.7965 156.203 82.0455 155.608C82.2812 155.012 82.4292 154.341 82.4897 153.597C82.5479 152.88 82.5088 152.207 82.3724 151.581C82.2227 150.954 81.974 150.392 81.6263 149.895C81.2776 149.412 80.8344 149.022 80.2968 148.724C79.7458 148.425 79.0982 148.245 78.354 148.185C77.2643 148.096 76.3257 148.288 75.5383 148.759C74.7366 149.242 74.2166 149.963 73.9784 150.92L71.1278 150.688C71.3448 149.663 71.7741 148.741 72.4157 147.923C73.0573 147.106 73.8974 146.479 74.9362 146.041C75.975 145.604 77.1855 145.441 78.5676 145.553Z" fill="#091E42"/>
<path d="M63.6466 142.715L59.1676 154.385L56.5162 153.367L60.9952 141.697L63.6466 142.715ZM63.2507 155.523L62.3549 157.857L51.8239 153.815L52.7197 151.481L63.2507 155.523Z" fill="#091E42"/>
<path d="M43.6743 130.561C44.6968 131.458 45.3875 132.409 45.7463 133.416C46.1051 134.422 46.1623 135.439 45.9178 136.466C45.6544 137.494 45.1052 138.484 44.27 139.436L38.5334 145.977L36.3983 144.105L42.2403 137.444C42.6975 136.922 43.0016 136.373 43.1528 135.796C43.2952 135.23 43.2726 134.669 43.0851 134.114C42.8788 133.561 42.495 133.038 41.9336 132.546C41.3823 132.062 40.8238 131.759 40.2583 131.635C39.6739 131.513 39.1151 131.564 38.5817 131.787C38.0384 132.003 37.5337 132.376 37.0678 132.907L31.2258 139.568L29.0906 137.696L34.8271 131.155C35.6623 130.202 36.5725 129.529 37.5575 129.133C38.5238 128.739 39.5292 128.655 40.5738 128.879C41.6183 129.104 42.6519 129.664 43.6743 130.561Z" fill="#091E42"/>
<path d="M32.1299 117.051C32.8162 118.147 33.2212 119.184 33.3448 120.16C33.4614 121.125 33.3384 121.997 32.9757 122.774C32.6017 123.559 32.0248 124.195 31.245 124.684L29.7699 122.327C30.0977 122.122 30.3632 121.83 30.5664 121.451C30.7584 121.079 30.8266 120.635 30.7711 120.12C30.7085 119.592 30.4721 119.001 30.0618 118.346C29.6939 117.758 29.3014 117.319 28.8842 117.03C28.4671 116.741 28.0627 116.585 27.6712 116.562C27.2684 116.547 26.8918 116.649 26.5415 116.868C26.1007 117.144 25.8671 117.55 25.8407 118.086C25.8029 118.629 25.9942 119.311 26.4145 120.133L27.0089 121.271C27.6501 122.522 27.8771 123.701 27.6899 124.809C27.4843 125.913 26.856 126.794 25.805 127.452C25.0139 127.947 24.2191 128.185 23.4205 128.166C22.6107 128.154 21.8445 127.91 21.1219 127.434C20.381 126.954 19.7275 126.262 19.1615 125.358C18.5743 124.42 18.2324 123.509 18.1356 122.626C18.0389 121.743 18.1733 120.927 18.5388 120.179C18.893 119.438 19.4713 118.817 20.2737 118.315L21.7488 120.671C21.4098 120.883 21.152 121.162 20.9756 121.509C20.7808 121.851 20.7012 122.239 20.7369 122.673C20.7542 123.103 20.9184 123.566 21.2297 124.063C21.5269 124.538 21.8536 124.884 22.2099 125.101C22.5662 125.319 22.9295 125.422 23.2998 125.41C23.6701 125.399 24.0135 125.294 24.3299 125.096C24.7142 124.855 24.9648 124.502 25.0817 124.035C25.1874 123.576 25.0718 123.027 24.735 122.388L24.1575 121.239C23.6735 120.315 23.3754 119.425 23.2631 118.567C23.1508 117.709 23.2414 116.937 23.5349 116.249C23.8213 115.551 24.3318 114.972 25.0664 114.512C25.8462 114.024 26.663 113.796 27.5166 113.828C28.359 113.867 29.1811 114.162 29.9828 114.714C30.7775 115.255 31.4932 116.034 32.1299 117.051Z" fill="#091E42"/>
<path d="M22.7582 87.2578C22.8294 88.5759 22.6576 89.7202 22.2428 90.6906C21.8279 91.6611 21.2639 92.4661 20.5507 93.1055C19.8368 93.7317 19.048 94.2083 18.1844 94.5354C17.3208 94.8625 16.483 95.048 15.6708 95.0919L15.2315 95.1157C14.3261 95.1646 13.4265 95.0731 12.5327 94.841C11.6381 94.5956 10.8152 94.1928 10.0638 93.6325C9.31249 93.0723 8.69896 92.3443 8.22324 91.4487C7.73349 90.5405 7.45442 89.454 7.38602 88.1892C7.31475 86.8711 7.49249 85.7132 7.91923 84.7153C8.33194 83.7049 8.95516 82.8834 9.78889 82.2508C10.6093 81.6189 11.5888 81.2121 12.7273 81.0303L12.8817 83.8862C12.2218 84.0287 11.6755 84.2986 11.243 84.6958C10.7965 85.0805 10.4752 85.5585 10.2791 86.13C10.0696 86.7021 9.98402 87.341 10.0222 88.0466C10.061 88.7656 10.2221 89.3978 10.5053 89.9433C10.7752 90.4895 11.1465 90.9368 11.6194 91.2851C12.0922 91.6334 12.6402 91.8909 13.2635 92.0575C13.886 92.2108 14.57 92.2672 15.3156 92.2269C16.0346 92.188 16.6952 92.0588 17.2976 91.8393C17.8992 91.6065 18.4226 91.2844 18.8677 90.8731C19.2995 90.4626 19.6267 89.9708 19.8495 89.398C20.0715 88.8118 20.1623 88.1459 20.122 87.4004C20.063 86.3086 19.747 85.4044 19.1742 84.6876C18.5872 83.9582 17.8035 83.5399 16.823 83.4327L16.6685 80.5769C17.7142 80.6539 18.6852 80.9552 19.5816 81.4809C20.478 82.0066 21.2128 82.7547 21.786 83.7251C22.3592 84.6956 22.6833 85.8732 22.7582 87.2578Z" fill="#091E42"/>
<path d="M24.7855 68.2801C24.4354 69.5528 23.9063 70.5965 23.1982 71.4112C22.4936 72.2131 21.6965 72.8235 20.8069 73.2426C19.9079 73.6452 18.9981 73.8859 18.0776 73.9646C17.1478 74.0269 16.2908 73.9502 15.5066 73.7344L15.0823 73.6178C14.221 73.3808 13.4085 72.9914 12.6449 72.4495C11.8684 71.904 11.218 71.2272 10.6935 70.4192C10.1725 69.5983 9.83369 68.6685 9.67691 67.6297C9.50727 66.5874 9.59397 65.4427 9.93698 64.1957C10.2765 62.9615 10.7856 61.94 11.4645 61.1311C12.1305 60.3186 12.8955 59.6993 13.7594 59.2732C14.6269 58.8342 15.5338 58.5789 16.48 58.5073C17.4133 58.4321 18.3107 58.513 19.172 58.75L19.5963 58.8667C20.3805 59.0824 21.1544 59.4612 21.918 60.0031C22.6723 60.5287 23.331 61.2008 23.894 62.0194C24.4477 62.8217 24.8205 63.7539 25.0123 64.8162C25.2076 65.8655 25.132 67.0202 24.7855 68.2801ZM22.24 67.5799C22.4381 66.8599 22.4863 66.1818 22.3848 65.5454C22.2868 64.8962 22.0676 64.3104 21.7273 63.7881C21.3777 63.2494 20.9419 62.7977 20.4199 62.4328C19.8887 62.0516 19.2952 61.7708 18.6396 61.5905C17.9325 61.396 17.2532 61.3267 16.6018 61.3826C15.9538 61.4256 15.3547 61.5927 14.8044 61.8838C14.2577 62.1621 13.7827 62.5569 13.3793 63.0683C12.9759 63.5796 12.6769 64.1888 12.4824 64.8959C12.2844 65.6158 12.228 66.2986 12.3131 66.9443C12.3982 67.59 12.6028 68.1787 12.9267 68.7103C13.2542 69.2291 13.6835 69.679 14.2148 70.0603C14.7496 70.4286 15.3705 70.71 16.0776 70.9045C16.7332 71.0849 17.385 71.1536 18.033 71.1105C18.6716 71.0511 19.2771 70.8858 19.8496 70.6146C20.4127 70.3269 20.9024 69.9292 21.3186 69.4214C21.7349 68.9137 22.042 68.2998 22.24 67.5799Z" fill="#091E42"/>
<path d="M29.0633 55.199L17.0407 46.9155L19.6846 43.0781L33.2475 44.9666L33.6219 44.4231L33.6914 44.9568L23.3158 37.808L24.8363 35.6011L36.8589 43.8846L34.2036 47.7384L20.6408 45.8499L20.255 46.4099L20.1855 45.8763L30.5611 53.0251L29.0633 55.199Z" fill="#091E42"/>
<path d="M44.1259 37.0612L36.3375 27.2841L38.5589 25.5146L46.3473 35.2917L44.1259 37.0612ZM33.286 30.2263L31.7283 28.2709L40.5512 21.2427L42.1088 23.1981L33.286 30.2263Z" fill="#091E42"/>
<path d="M53.5623 29.9157L52.634 14.5177L56.9274 12.7582L67.2014 24.3263L64.4995 25.4335L55.6829 15.3648L56.7936 15.3851L54.4803 16.3332L55.2758 15.5316L56.1902 28.8388L53.5623 29.9157ZM55.3111 25.0059L55.2338 22.4438L60.7116 20.1989L62.436 22.086L55.3111 25.0059Z" fill="#091E42"/>
<path d="M79.5422 22.9216C78.2265 23.0284 77.078 22.8875 76.0967 22.499C75.1154 22.1104 74.2955 21.5683 73.6371 20.8726C72.9919 20.1759 72.4942 19.4003 72.1439 18.5458C71.7936 17.6914 71.5856 16.8588 71.5198 16.0481L71.4842 15.6096C71.4108 14.7059 71.4781 13.8041 71.6859 12.9044C71.9071 12.0035 72.2876 11.17 72.8274 10.4038C73.3671 9.63764 74.0783 9.00469 74.9607 8.50499C75.8554 7.99092 76.934 7.68264 78.1965 7.58015C79.5122 7.47335 80.6745 7.61979 81.6835 8.01946C82.7047 8.40477 83.5427 9.0056 84.1976 9.82196C84.8514 10.625 85.2844 11.5932 85.4968 12.7264L82.6462 12.9578C82.4859 12.3019 82.2014 11.7632 81.7926 11.3415C81.3961 10.9055 80.9095 10.5972 80.333 10.4166C79.7554 10.2227 79.1145 10.1543 78.4101 10.2115C77.6925 10.2698 77.0648 10.4478 76.5272 10.7456C75.9884 11.0301 75.5513 11.4134 75.2159 11.8955C74.8805 12.3775 74.6379 12.9323 74.4882 13.5598C74.3517 14.1862 74.3137 14.8715 74.3741 15.6158C74.4324 16.3334 74.5794 16.9903 74.815 17.5866C75.064 18.1817 75.4001 18.6962 75.8232 19.13C76.2453 19.5506 76.7457 19.8645 77.3243 20.0717C77.9163 20.2778 78.5844 20.3506 79.3286 20.2902C80.4183 20.2018 81.3137 19.8615 82.0148 19.2695C82.7281 18.6632 83.1251 17.8684 83.2058 16.8854L86.0564 16.654C86.0077 17.7013 85.7326 18.6801 85.2313 19.5903C84.73 20.5006 84.002 21.2553 83.0473 21.8545C82.0927 22.4537 80.9243 22.8094 79.5422 22.9216Z" fill="#091E42"/>
<path d="M94.5729 23.1943L97.0555 10.9434L99.8389 11.5074L97.3564 23.7584L94.5729 23.1943ZM92.8401 10.4973L93.3366 8.04707L104.392 10.2873L103.895 12.7375L92.8401 10.4973Z" fill="#091E42"/>
<path d="M116.609 31.954C115.456 31.2324 114.622 30.4035 114.107 29.4675C113.592 28.5316 113.373 27.5371 113.45 26.4842C113.545 25.4271 113.929 24.3618 114.601 23.2881L119.217 15.9138L121.625 17.4208L116.923 24.9307C116.555 25.5183 116.343 26.109 116.286 26.7025C116.236 27.2848 116.348 27.8346 116.622 28.3521C116.914 28.8654 117.377 29.3201 118.01 29.7163C118.631 30.1054 119.231 30.3157 119.809 30.3472C120.405 30.3745 120.949 30.235 121.44 29.9286C121.942 29.6294 122.38 29.1802 122.755 28.5813L127.456 21.0714L129.863 22.5783L125.247 29.9526C124.575 31.0262 123.784 31.8369 122.875 32.3846C121.984 32.9281 121.005 33.1726 119.938 33.1181C118.871 33.0637 117.762 32.6756 116.609 31.954Z" fill="#091E42"/>
<path d="M130.147 43.3353C129.29 42.3661 128.721 41.4099 128.44 40.4668C128.167 39.5336 128.146 38.6538 128.376 37.8274C128.617 36.9921 129.082 36.2699 129.771 35.6608L131.612 37.7441C131.322 38.0002 131.108 38.3317 130.97 38.7388C130.841 39.137 130.846 39.586 130.985 40.0858C131.133 40.5956 131.463 41.1403 131.975 41.7198C132.434 42.2394 132.893 42.6079 133.352 42.8252C133.811 43.0425 134.235 43.1301 134.625 43.0881C135.025 43.0373 135.38 42.8751 135.69 42.6014C136.08 42.2571 136.244 41.8186 136.182 41.2858C136.131 40.7442 135.83 40.1021 135.281 39.3597L134.509 38.3342C133.672 37.2056 133.255 36.0793 133.258 34.9555C133.28 33.8328 133.756 32.8609 134.685 32.0399C135.385 31.4219 136.13 31.0571 136.921 30.9455C137.722 30.825 138.518 30.9403 139.308 31.2915C140.118 31.6439 140.876 32.2197 141.582 33.0191C142.315 33.8485 142.801 34.6909 143.041 35.5465C143.281 36.402 143.282 37.2286 143.043 38.0262C142.815 38.815 142.346 39.5228 141.637 40.1496L139.796 38.0662C140.096 37.8014 140.304 37.4837 140.422 37.1131C140.558 36.7437 140.573 36.3479 140.467 35.9257C140.38 35.5046 140.142 35.0743 139.753 34.6346C139.383 34.215 139.004 33.927 138.617 33.7708C138.229 33.6146 137.854 33.5725 137.491 33.6445C137.127 33.7165 136.806 33.8761 136.526 34.1233C136.186 34.4234 135.997 34.8132 135.958 35.2925C135.929 35.763 136.132 36.2857 136.569 36.8606L137.327 37.8993C137.955 38.7317 138.395 39.5618 138.646 40.3897C138.897 41.2176 138.934 41.9944 138.757 42.7203C138.589 43.4561 138.18 44.1109 137.53 44.6848C136.841 45.2939 136.073 45.6525 135.225 45.7607C134.388 45.86 133.528 45.703 132.647 45.2895C131.775 44.886 130.941 44.2346 130.147 43.3353Z" fill="#091E42"/>
</svg>
