<svg width="169" height="169" viewBox="0 0 169 169" fill="none" xmlns="http://www.w3.org/2000/svg">
<path d="M145.314 91.6348C145.461 90.3231 145.819 89.2229 146.389 88.3342C146.958 87.4455 147.647 86.7446 148.456 86.2317C149.264 85.732 150.12 85.3921 151.026 85.212C151.932 85.0319 152.789 84.9872 153.597 85.0779L154.034 85.127C154.935 85.2282 155.807 85.4669 156.651 85.8434C157.492 86.233 158.238 86.7661 158.886 87.4427C159.535 88.1193 160.02 88.9385 160.341 89.9004C160.674 90.877 160.77 91.9946 160.629 93.2534C160.482 94.5652 160.115 95.6779 159.53 96.5916C158.956 97.5201 158.205 98.2274 157.279 98.7138C156.365 99.2016 155.332 99.4412 154.179 99.4325L154.498 96.5903C155.173 96.5587 155.756 96.3827 156.248 96.0622C156.752 95.7565 157.148 95.3381 157.436 94.8069C157.737 94.2771 157.926 93.6611 158.005 92.9589C158.086 92.2434 158.031 91.5932 157.842 91.0085C157.666 90.4252 157.373 89.9228 156.964 89.5012C156.556 89.0796 156.058 88.7353 155.47 88.4681C154.882 88.2142 154.216 88.0456 153.474 87.9623C152.759 87.882 152.086 87.9003 151.456 88.0174C150.824 88.1477 150.254 88.379 149.748 88.7112C149.254 89.0449 148.85 89.4759 148.536 90.0041C148.22 90.5456 148.021 91.1873 147.937 91.9293C147.815 93.0159 147.978 93.9599 148.424 94.7614C148.883 95.5776 149.587 96.1195 150.536 96.3871L150.217 99.2292C149.199 98.9807 148.291 98.5233 147.493 97.8568C146.696 97.1904 146.095 96.3313 145.69 95.2795C145.284 94.2277 145.159 93.0129 145.314 91.6348Z" fill="white"/>
<path d="M140.203 109.843C140.757 108.646 141.451 107.703 142.283 107.016C143.11 106.341 143.997 105.87 144.943 105.603C145.896 105.354 146.833 105.266 147.754 105.34C148.682 105.431 149.514 105.648 150.252 105.99L150.652 106.175C151.462 106.55 152.2 107.068 152.864 107.728C153.54 108.394 154.07 109.168 154.455 110.052C154.833 110.947 155.015 111.92 154.998 112.97C154.994 114.026 154.72 115.141 154.177 116.315C153.639 117.476 152.969 118.4 152.166 119.086C151.376 119.778 150.519 120.263 149.597 120.541C148.669 120.832 147.732 120.934 146.787 120.849C145.854 120.77 144.983 120.542 144.172 120.167L143.773 119.982C143.035 119.64 142.334 119.139 141.669 118.479C141.012 117.837 140.473 117.065 140.052 116.165C139.638 115.283 139.424 114.302 139.409 113.223C139.389 112.156 139.654 111.029 140.203 109.843ZM142.598 110.953C142.285 111.63 142.125 112.291 142.121 112.936C142.111 113.592 142.23 114.206 142.48 114.777C142.737 115.366 143.092 115.883 143.547 116.329C144.008 116.792 144.547 117.167 145.164 117.453C145.83 117.761 146.488 117.941 147.14 117.993C147.786 118.057 148.405 117.991 148.996 117.794C149.581 117.61 150.114 117.299 150.596 116.861C151.078 116.423 151.473 115.871 151.781 115.205C152.095 114.528 152.263 113.864 152.285 113.213C152.308 112.562 152.203 111.948 151.971 111.37C151.733 110.804 151.384 110.29 150.922 109.826C150.455 109.375 149.889 108.995 149.224 108.687C148.607 108.401 147.975 108.226 147.329 108.162C146.689 108.116 146.065 108.179 145.455 108.353C144.853 108.544 144.304 108.855 143.81 109.288C143.316 109.72 142.912 110.275 142.598 110.953Z" fill="white"/>
<path d="M133.747 122.1L144.256 132.234L141.021 135.589L127.949 131.512L127.49 131.987L127.509 131.449L136.579 140.196L134.719 142.125L124.209 131.99L127.458 128.621L140.53 132.698L141.002 132.208L140.984 132.746L131.914 124L133.747 122.1Z" fill="white"/>
<path d="M115.794 137.568L121.872 148.491L119.391 149.872L113.313 138.949L115.794 137.568ZM125.365 146.089L126.581 148.274L116.724 153.759L115.509 151.574L125.365 146.089Z" fill="white"/>
<path d="M105.367 142.978L103.736 158.317L99.2108 159.343L90.9911 146.235L93.8389 145.59L100.869 156.978L99.7772 156.774L102.215 156.222L101.298 156.881L102.597 143.606L105.367 142.978ZM102.83 147.531L102.483 150.071L96.7091 151.379L95.3205 149.233L102.83 147.531Z" fill="white"/>
<path d="M78.5692 145.553C79.8849 145.66 80.9956 145.985 81.9014 146.526C82.8072 147.068 83.5289 147.735 84.0665 148.528C84.5909 149.32 84.957 150.165 85.1649 151.065C85.3727 151.965 85.4438 152.82 85.378 153.631L85.3424 154.069C85.269 154.973 85.0572 155.852 84.7069 156.707C84.3433 157.56 83.8334 158.321 83.1771 158.99C82.5208 159.659 81.7169 160.169 80.7654 160.52C79.7996 160.883 78.6854 161.014 77.4229 160.911C76.1072 160.804 74.9837 160.472 74.0524 159.915C73.1067 159.37 72.3766 158.642 71.8619 157.731C71.3462 156.833 71.075 155.807 71.0482 154.655L73.8988 154.886C73.9512 155.559 74.1451 156.137 74.4805 156.619C74.8015 157.113 75.232 157.496 75.7718 157.767C76.3106 158.052 76.9321 158.223 77.6365 158.28C78.3541 158.338 79.0022 158.263 79.5809 158.056C80.1585 157.862 80.6517 157.555 81.0605 157.133C81.4693 156.711 81.7981 156.203 82.0471 155.608C82.2828 155.012 82.4308 154.341 82.4912 153.597C82.5495 152.88 82.5104 152.207 82.374 151.581C82.2243 150.954 81.9756 150.392 81.6279 149.895C81.2792 149.412 80.836 149.022 80.2984 148.724C79.7474 148.425 79.0998 148.245 78.3556 148.185C77.2658 148.096 76.3273 148.288 75.5399 148.759C74.7382 149.242 74.2182 149.963 73.98 150.92L71.1293 150.688C71.3464 149.663 71.7757 148.741 72.4173 147.923C73.0588 147.106 73.899 146.479 74.9378 146.041C75.9766 145.604 77.1871 145.441 78.5692 145.553Z" fill="white"/>
<path d="M63.6481 142.715L59.1691 154.385L56.5177 153.367L60.9967 141.697L63.6481 142.715ZM63.2522 155.523L62.3564 157.857L51.8254 153.815L52.7212 151.481L63.2522 155.523Z" fill="white"/>
<path d="M43.6762 130.561C44.6986 131.458 45.3893 132.409 45.7481 133.416C46.1069 134.422 46.1641 135.439 45.9196 136.466C45.6563 137.494 45.107 138.484 44.2718 139.436L38.5353 145.977L36.4001 144.105L42.2421 137.444C42.6993 136.922 43.0035 136.373 43.1546 135.796C43.297 135.23 43.2745 134.669 43.087 134.114C42.8806 133.561 42.4968 133.038 41.9354 132.546C41.3841 132.062 40.8257 131.759 40.2601 131.635C39.6758 131.513 39.1169 131.564 38.5836 131.787C38.0402 132.003 37.5356 132.376 37.0696 132.907L31.2276 139.568L29.0924 137.696L34.8289 131.155C35.6641 130.202 36.5743 129.529 37.5594 129.133C38.5256 128.739 39.531 128.655 40.5756 128.879C41.6202 129.104 42.6537 129.664 43.6762 130.561Z" fill="white"/>
<path d="M32.1319 117.051C32.8181 118.147 33.2231 119.184 33.3468 120.16C33.4634 121.125 33.3403 121.997 32.9777 122.774C32.6037 123.559 32.0268 124.195 31.247 124.684L29.7719 122.327C30.0996 122.122 30.3651 121.83 30.5684 121.451C30.7603 121.079 30.8286 120.635 30.7731 120.12C30.7105 119.592 30.474 119.001 30.0637 118.346C29.6958 117.758 29.3033 117.319 28.8862 117.03C28.469 116.741 28.0647 116.585 27.6732 116.562C27.2704 116.547 26.8938 116.649 26.5435 116.868C26.1027 117.144 25.8691 117.55 25.8426 118.086C25.8048 118.629 25.9961 119.311 26.4165 120.133L27.0109 121.271C27.652 122.522 27.879 123.701 27.6918 124.809C27.4863 125.913 26.858 126.794 25.807 127.452C25.0158 127.947 24.221 128.185 23.4225 128.166C22.6126 128.154 21.8464 127.91 21.1239 127.434C20.3829 126.954 19.7295 126.262 19.1635 125.358C18.5763 124.42 18.2343 123.509 18.1376 122.626C18.0408 121.743 18.1752 120.927 18.5407 120.179C18.8949 119.438 19.4733 118.817 20.2757 118.315L21.7508 120.671C21.4117 120.883 21.154 121.162 20.9776 121.509C20.7828 121.851 20.7032 122.239 20.7388 122.673C20.7561 123.103 20.9204 123.566 21.2317 124.063C21.5288 124.538 21.8556 124.884 22.2119 125.101C22.5682 125.319 22.9315 125.422 23.3018 125.41C23.6721 125.399 24.0154 125.294 24.3319 125.096C24.7161 124.855 24.9667 124.502 25.0837 124.035C25.1894 123.576 25.0738 123.027 24.7369 122.388L24.1595 121.239C23.6755 120.315 23.3773 119.425 23.265 118.567C23.1528 117.709 23.2434 116.937 23.5369 116.249C23.8233 115.551 24.3338 114.972 25.0684 114.512C25.8482 114.024 26.6649 113.796 27.5186 113.828C28.361 113.867 29.183 114.162 29.9848 114.714C30.7795 115.255 31.4952 116.034 32.1319 117.051Z" fill="white"/>
<path d="M22.7578 87.2578C22.8291 88.5759 22.6573 89.7202 22.2424 90.6906C21.8275 91.6611 21.2635 92.4661 20.5503 93.1055C19.8364 93.7317 19.0477 94.2083 18.1841 94.5354C17.3205 94.8625 16.4826 95.048 15.6705 95.0919L15.2311 95.1157C14.3258 95.1646 13.4262 95.0731 12.5323 94.841C11.6378 94.5956 10.8148 94.1928 10.0635 93.6325C9.31213 93.0723 8.69859 92.3443 8.22288 91.4487C7.73312 90.5405 7.45405 89.454 7.38566 88.1892C7.31438 86.8711 7.49212 85.7132 7.91886 84.7153C8.33158 83.7049 8.95479 82.8834 9.78852 82.2508C10.6089 81.6189 11.5884 81.2121 12.7269 81.0303L12.8813 83.8862C12.2214 84.0287 11.6752 84.2986 11.2427 84.6958C10.7961 85.0805 10.4748 85.5585 10.2787 86.13C10.0693 86.7021 9.98365 87.341 10.0218 88.0466C10.0607 88.7656 10.2217 89.3978 10.5049 89.9433C10.7748 90.4895 11.1462 90.9368 11.619 91.2851C12.0918 91.6334 12.6399 91.8909 13.2631 92.0575C13.8856 92.2108 14.5697 92.2672 15.3152 92.2269C16.0342 92.188 16.6948 92.0588 17.2972 91.8393C17.8988 91.6065 18.4222 91.2844 18.8673 90.8731C19.2991 90.4626 19.6264 89.9708 19.8491 89.398C20.0711 88.8118 20.162 88.1459 20.1216 87.4004C20.0626 86.3086 19.7467 85.4044 19.1738 84.6876C18.5869 83.9582 17.8032 83.5399 16.8226 83.4327L16.6682 80.5769C17.7139 80.6539 18.6849 80.9552 19.5812 81.4809C20.4776 82.0066 21.2124 82.7547 21.7856 83.7251C22.3589 84.6956 22.6829 85.8732 22.7578 87.2578Z" fill="white"/>
<path d="M24.7851 68.2801C24.435 69.5528 23.9059 70.5965 23.1978 71.4112C22.4933 72.2131 21.6962 72.8235 20.8065 73.2426C19.9075 73.6452 18.9978 73.8859 18.0773 73.9646C17.1474 74.0269 16.2904 73.9502 15.5062 73.7344L15.082 73.6178C14.2206 73.3808 13.4082 72.9914 12.6445 72.4495C11.8681 71.904 11.2176 71.2272 10.6931 70.4192C10.1722 69.5983 9.83332 68.6685 9.67654 67.6297C9.50691 66.5874 9.5936 65.4427 9.93662 64.1957C10.2761 62.9615 10.7853 61.94 11.4641 61.1311C12.1301 60.3186 12.8951 59.6993 13.759 59.2732C14.6265 58.8342 15.5334 58.5789 16.4796 58.5073C17.413 58.4321 18.3103 58.513 19.1716 58.75L19.5959 58.8667C20.3801 59.0824 21.154 59.4612 21.9176 60.0031C22.6719 60.5287 23.3306 61.2008 23.8936 62.0194C24.4474 62.8217 24.8201 63.7539 25.0119 64.8162C25.2073 65.8655 25.1317 67.0202 24.7851 68.2801ZM22.2397 67.5799C22.4377 66.8599 22.4859 66.1818 22.3844 65.5454C22.2864 64.8962 22.0673 64.3104 21.7269 63.7881C21.3773 63.2494 20.9415 62.7977 20.4196 62.4328C19.8883 62.0516 19.2949 61.7708 18.6392 61.5905C17.9321 61.396 17.2529 61.3267 16.6014 61.3826C15.9534 61.4256 15.3543 61.5927 14.8041 61.8838C14.2574 62.1621 13.7823 62.5569 13.3789 63.0683C12.9755 63.5796 12.6766 64.1888 12.4821 64.8959C12.284 65.6158 12.2276 66.2986 12.3127 66.9443C12.3979 67.59 12.6024 68.1787 12.9263 68.7103C13.2538 69.2291 13.6832 69.679 14.2144 70.0603C14.7492 70.4286 15.3701 70.71 16.0772 70.9045C16.7329 71.0849 17.3847 71.1536 18.0326 71.1105C18.6712 71.0511 19.2768 70.8858 19.8492 70.6146C20.4123 70.3269 20.902 69.9292 21.3182 69.4214C21.7345 68.9137 22.0416 68.2998 22.2397 67.5799Z" fill="white"/>
<path d="M29.0649 55.199L17.0423 46.9155L19.6862 43.0781L33.249 44.9666L33.6235 44.4231L33.693 44.9568L23.3173 37.808L24.8379 35.6011L36.8605 43.8846L34.2052 47.7384L20.6424 45.8499L20.2566 46.4099L20.1871 45.8763L30.5627 53.0251L29.0649 55.199Z" fill="white"/>
<path d="M44.1247 37.0612L36.3363 27.2841L38.5577 25.5146L46.346 35.2917L44.1247 37.0612ZM33.2848 30.2263L31.7271 28.2709L40.5499 21.2427L42.1076 23.1981L33.2848 30.2263Z" fill="white"/>
<path d="M53.5609 29.9157L52.6327 14.5177L56.9261 12.7582L67.2001 24.3263L64.4982 25.4335L55.6816 15.3648L56.7923 15.3851L54.479 16.3332L55.2744 15.5316L56.1888 28.8388L53.5609 29.9157ZM55.3097 25.0059L55.2324 22.4438L60.7103 20.1989L62.4346 22.086L55.3097 25.0059Z" fill="white"/>
<path d="M79.5415 22.9216C78.2258 23.0284 77.0773 22.8875 76.096 22.499C75.1146 22.1104 74.2948 21.5683 73.6363 20.8726C72.9912 20.1759 72.4934 19.4003 72.1432 18.5458C71.7929 17.6914 71.5848 16.8588 71.519 16.0481L71.4834 15.6096C71.4101 14.7059 71.4773 13.8041 71.6852 12.9044C71.9064 12.0035 72.2869 11.17 72.8266 10.4038C73.3664 9.63764 74.0775 9.00469 74.96 8.50499C75.8547 7.99092 76.9333 7.68264 78.1958 7.58015C79.5114 7.47335 80.6738 7.61979 81.6828 8.01946C82.7039 8.40477 83.542 9.0056 84.1968 9.82196C84.8506 10.625 85.2837 11.5932 85.4961 12.7264L82.6455 12.9578C82.4852 12.3019 82.2007 11.7632 81.7919 11.3415C81.3953 10.9055 80.9088 10.5972 80.3323 10.4166C79.7547 10.2227 79.1137 10.1543 78.4094 10.2115C77.6917 10.2698 77.0641 10.4478 76.5264 10.7456C75.9877 11.0301 75.5506 11.4134 75.2152 11.8955C74.8797 12.3775 74.6371 12.9323 74.4874 13.5598C74.351 14.1862 74.313 14.8715 74.3734 15.6158C74.4317 16.3334 74.5786 16.9903 74.8143 17.5866C75.0633 18.1817 75.3993 18.6962 75.8225 19.13C76.2446 19.5506 76.7449 19.8645 77.3236 20.0717C77.9156 20.2778 78.5836 20.3506 79.3279 20.2902C80.4176 20.2018 81.313 19.8615 82.0141 19.2695C82.7274 18.6632 83.1244 17.8684 83.2051 16.8854L86.0557 16.654C86.007 17.7013 85.7319 18.6801 85.2306 19.5903C84.7293 20.5006 84.0013 21.2553 83.0466 21.8545C82.092 22.4537 80.9236 22.8094 79.5415 22.9216Z" fill="white"/>
<path d="M94.5723 23.1943L97.0549 10.9434L99.8383 11.5074L97.3558 23.7584L94.5723 23.1943ZM92.8395 10.4973L93.336 8.04707L104.391 10.2873L103.895 12.7375L92.8395 10.4973Z" fill="white"/>
<path d="M116.609 31.954C115.457 31.2324 114.623 30.4035 114.107 29.4675C113.592 28.5316 113.373 27.5371 113.45 26.4842C113.546 25.4271 113.93 24.3618 114.602 23.2881L119.218 15.9138L121.625 17.4208L116.924 24.9307C116.556 25.5183 116.344 26.109 116.287 26.7025C116.237 27.2848 116.349 27.8346 116.623 28.3521C116.915 28.8654 117.377 29.3201 118.01 29.7163C118.632 30.1054 119.232 30.3157 119.81 30.3472C120.406 30.3745 120.95 30.235 121.44 29.9286C121.942 29.6294 122.381 29.1802 122.756 28.5813L127.457 21.0714L129.864 22.5783L125.248 29.9526C124.576 31.0262 123.785 31.8369 122.876 32.3846C121.985 32.9281 121.006 33.1726 119.939 33.1181C118.872 33.0637 117.762 32.6756 116.609 31.954Z" fill="white"/>
<path d="M130.148 43.3353C129.292 42.3661 128.723 41.4099 128.441 40.4668C128.169 39.5336 128.147 38.6538 128.378 37.8274C128.619 36.9921 129.084 36.2699 129.773 35.6608L131.614 37.7441C131.324 38.0002 131.11 38.3317 130.971 38.7388C130.843 39.137 130.848 39.586 130.987 40.0858C131.135 40.5956 131.465 41.1403 131.977 41.7198C132.436 42.2394 132.895 42.6079 133.354 42.8252C133.813 43.0425 134.237 43.1301 134.627 43.0881C135.027 43.0373 135.382 42.8751 135.692 42.6014C136.081 42.2571 136.245 41.8186 136.184 41.2858C136.132 40.7442 135.832 40.1021 135.283 39.3597L134.51 38.3342C133.673 37.2056 133.256 36.0793 133.26 34.9555C133.282 33.8328 133.758 32.8609 134.687 32.0399C135.387 31.4219 136.132 31.0571 136.923 30.9455C137.724 30.825 138.519 30.9403 139.31 31.2915C140.119 31.6439 140.877 32.2197 141.584 33.0191C142.316 33.8485 142.803 34.6909 143.043 35.5465C143.282 36.402 143.283 37.2286 143.045 38.0262C142.817 38.815 142.348 39.5228 141.638 40.1496L139.798 38.0662C140.098 37.8014 140.306 37.4837 140.423 37.1131C140.56 36.7437 140.575 36.3479 140.469 35.9257C140.381 35.5046 140.143 35.0743 139.755 34.6346C139.384 34.215 139.005 33.927 138.618 33.7708C138.231 33.6146 137.856 33.5725 137.492 33.6445C137.129 33.7165 136.807 33.8761 136.528 34.1233C136.188 34.4234 135.999 34.8132 135.959 35.2925C135.93 35.763 136.134 36.2857 136.571 36.8606L137.328 37.8993C137.957 38.7317 138.397 39.5618 138.648 40.3897C138.899 41.2176 138.936 41.9944 138.759 42.7203C138.591 43.4561 138.182 44.1109 137.532 44.6848C136.843 45.2939 136.074 45.6525 135.227 45.7607C134.389 45.86 133.53 45.703 132.649 45.2895C131.776 44.886 130.943 44.2346 130.148 43.3353Z" fill="white"/>
</svg>
