<svg width="33" height="32" viewBox="0 0 33 32" fill="none" xmlns="http://www.w3.org/2000/svg">
<path fill-rule="evenodd" clip-rule="evenodd" d="M16.502 1.66699C12.4342 1.66699 8.57074 4.14023 6.95674 8.02131C5.45415 11.6345 6.27102 14.7137 7.95829 17.3367C9.33535 19.4775 11.3446 21.3885 13.1371 23.0934C13.4778 23.4174 13.8106 23.7339 14.1298 24.0433L14.132 24.0454C14.7684 24.6583 15.6182 25.0003 16.502 25.0003C17.3857 25.0003 18.2357 24.6583 18.8721 24.0453C19.1736 23.7549 19.4869 23.4579 19.8073 23.1543L19.8088 23.153C21.6205 21.4362 23.6573 19.5059 25.0488 17.3379C26.734 14.7123 27.548 11.63 26.0473 8.02131C24.4333 4.14023 20.5698 1.66699 16.502 1.66699ZM16.5013 8.00033C14.2921 8.00033 12.5013 9.79119 12.5013 12.0003C12.5013 14.2095 14.2921 16.0003 16.5013 16.0003C18.7105 16.0003 20.5013 14.2095 20.5013 12.0003C20.5013 9.79119 18.7105 8.00033 16.5013 8.00033Z" fill="white"/>
<path d="M8.5013 25C9.19624 25 9.767 25.5316 9.82905 26.2104C9.85212 26.2357 9.89141 26.2737 9.95528 26.3241C10.1931 26.5115 10.6199 26.7387 11.2661 26.954C12.5446 27.3803 14.3956 27.6667 16.5013 27.6667C18.607 27.6667 20.458 27.3803 21.7365 26.954C22.3828 26.7387 22.8094 26.5115 23.0473 26.3241C23.1112 26.2737 23.1505 26.2357 23.1736 26.2104C23.2356 25.5316 23.8064 25 24.5013 25C25.2377 25 25.8346 25.5969 25.8346 26.3333C25.8346 27.2852 25.2548 27.9797 24.698 28.4185C24.1261 28.8692 23.3813 29.2167 22.5798 29.4839C20.9629 30.0228 18.8138 30.3333 16.5013 30.3333C14.1888 30.3333 12.0398 30.0228 10.4228 29.4839C9.6213 29.2167 8.8765 28.8692 8.30469 28.4185C7.7479 27.9797 7.16797 27.2852 7.16797 26.3333C7.16797 25.5969 7.76493 25 8.5013 25Z" fill="white"/>
</svg>
