<svg width="33" height="32" viewBox="0 0 33 32" fill="none" xmlns="http://www.w3.org/2000/svg">
<path fill-rule="evenodd" clip-rule="evenodd" d="M2.16797 16.0003C2.16797 8.08425 8.58522 1.66699 16.5013 1.66699C24.4174 1.66699 30.8346 8.08425 30.8346 16.0003C30.8346 23.9165 24.4174 30.3337 16.5013 30.3337C8.58522 30.3337 2.16797 23.9165 2.16797 16.0003ZM14.5013 13.3337C14.5013 12.2291 15.3968 11.3337 16.5013 11.3337C17.6058 11.3337 18.5013 12.2291 18.5013 13.3337C18.5013 14.4382 17.6058 15.3337 16.5013 15.3337C15.7649 15.3337 15.168 15.9306 15.168 16.667V19.3337H17.8346V17.8071C19.7622 17.2334 21.168 15.4477 21.168 13.3337C21.168 10.7563 19.0786 8.66699 16.5013 8.66699C13.924 8.66699 11.8346 10.7563 11.8346 13.3337H14.5013ZM15.168 21.3337V23.3337H17.8346V21.3337H15.168Z" fill="white"/>
</svg>
