<svg width="1129" height="337" viewBox="0 0 1129 337" fill="none" xmlns="http://www.w3.org/2000/svg">
<path d="M282 63.4522H301.816V178.06H282V197.059H409.069V150.276H390.07V178.06H324.901V128.008H381.694V109.009H324.901V63.4522H390.07V90.4188H409.069V44.4531H282V63.4522Z" fill="#003263"/>
<path fill-rule="evenodd" clip-rule="evenodd" d="M563.513 64.2677C578.222 79.1129 585.577 97.8397 585.577 120.448C585.577 132.433 583.262 143.874 578.631 154.769C574.001 165.665 566.101 175.403 554.933 183.983C543.765 192.699 531.099 197.67 516.935 198.896L521.429 200.735C533.415 205.638 542.608 208.089 549.009 208.089C551.052 208.089 553.776 207.749 557.181 207.068L549.009 226.067C546.83 226.476 544.787 226.68 542.88 226.68C535.662 226.544 525.719 223.411 513.053 217.282C502.022 211.971 493.373 209.315 487.108 209.315C480.571 209.315 475.328 211.154 471.378 214.831L464.841 205.434C469.199 200.803 474.851 197.738 481.797 196.24C469.539 192.427 459.121 186.162 450.54 177.445C441.96 168.865 436.035 159.604 432.766 149.662C429.362 139.856 427.659 130.05 427.659 120.244C427.659 98.5888 434.809 80.1345 449.11 64.8807C463.41 49.6269 482.41 42 506.108 42C529.805 42 548.94 49.4225 563.513 64.2677ZM560.449 120.448C560.449 104.105 555.274 90.3491 544.923 79.1811C534.572 67.877 521.565 62.2248 505.903 62.2248C490.241 62.2248 477.507 67.7408 467.701 78.7725C457.758 89.9405 452.787 103.764 452.787 120.244C452.787 136.996 457.69 151.024 467.496 162.328C477.302 173.632 490.173 179.284 506.108 179.284C521.906 179.284 534.912 173.496 545.127 161.919C555.342 150.343 560.449 136.519 560.449 120.448Z" fill="#003263"/>
<path d="M679.757 63.4522H697.325V141.083C697.325 152.796 696.577 160.968 695.079 165.598C693.444 170.365 690.244 174.11 685.477 176.834C680.574 179.558 673.56 180.92 664.435 180.92C656.808 180.92 650.611 179.286 645.844 176.017C641.077 172.885 638.081 169.071 636.855 164.577C635.63 159.946 635.016 151.706 635.016 139.857V63.4522H652.994V44.4531H592.933V63.4522H611.932V141.083C611.932 152.932 612.545 161.649 613.77 167.232C615.132 172.953 617.72 178.264 621.533 183.167C625.483 188.206 631.271 192.156 638.898 195.016C646.661 198.012 656.331 199.511 667.908 199.511C678.258 199.511 687.111 197.944 694.466 194.812C701.82 191.543 707.472 187.321 711.422 182.146C715.508 176.834 718.027 171.727 718.981 166.824C719.798 161.921 720.207 154.09 720.207 143.33V63.4522H739.41V44.4531H679.757V63.4522Z" fill="#003263"/>
<path d="M875.263 150.276H856.468V178.06H791.299V128.008H848.092V109.009H791.299V63.4522H856.468V90.4188H875.263V44.4531H748.397V63.4522H768.214V178.06H748.397V197.059H875.263V150.276Z" fill="#003263"/>
<path d="M995.183 154.565C995.183 145.304 993.004 137.132 988.645 130.05C984.151 122.968 978.908 117.86 972.915 114.728C966.786 111.732 956.98 108.463 943.497 104.922C933.282 102.334 926.405 100.291 922.863 98.7931C919.322 97.4312 916.394 95.184 914.079 92.0515C911.9 88.919 910.81 85.3099 910.81 81.2241C910.81 75.9125 912.989 71.2818 917.348 67.3321C921.842 63.5187 928.243 61.612 936.551 61.612C950.307 61.612 961.134 67.5365 969.033 79.3854V90.0086H987.624V43.6343H969.033V53.8489C958.546 45.9496 947.174 42 934.916 42C922.114 42 911.423 45.8134 902.843 53.4403C894.399 61.0672 890.177 71.2818 890.177 84.0841C890.177 92.3919 892.084 99.5422 895.897 105.535C899.847 111.663 905.09 116.362 911.627 119.631C918.301 122.9 928.447 126.304 942.067 129.846C953.916 133.114 961.951 136.315 966.173 139.447C970.395 142.58 972.506 147.823 972.506 155.178C972.506 162.532 969.919 168.525 964.743 173.155C959.568 177.786 953.235 180.101 945.744 180.101C930.899 180.101 918.914 171.793 909.788 155.178V141.694H890.585V197.057H909.788V184.596C920.82 194.538 933.35 199.509 947.378 199.509C960.862 199.509 972.166 195.287 981.291 186.843C990.552 178.399 995.183 167.639 995.183 154.565Z" fill="#003263"/>
<path d="M1023.78 63.4522H1055.24V178.06H1035.63V197.059H1098.15V178.06H1078.33V63.4522H1109.79V102.472H1128.59V44.4531H1004.78V102.472H1023.78V63.4522Z" fill="#003263"/>
<path d="M290.171 285.925H286.289V238.121H290.171V285.925Z" fill="#003263"/>
<path d="M316.321 252.217C318.228 252.217 319.998 252.557 321.633 253.238C323.267 253.919 324.697 254.873 325.923 256.098C327.149 257.324 328.102 258.754 328.783 260.388C329.464 262.159 329.804 264.066 329.804 266.109V285.925H326.332V266.109C326.332 264.611 326.059 263.249 325.514 262.023C324.969 260.661 324.221 259.503 323.267 258.55C322.314 257.597 321.224 256.847 319.998 256.303C318.773 255.758 317.479 255.486 316.117 255.486C314.619 255.486 313.189 255.758 311.827 256.303C310.465 256.847 309.307 257.597 308.354 258.55C307.4 259.503 306.719 260.661 306.311 262.023C305.766 263.249 305.494 264.611 305.494 266.109V285.925H302.021V252.421H304.268L305.494 257.528H305.698C306.379 256.439 307.196 255.485 308.149 254.668C309.103 254.124 310.192 253.579 311.418 253.034C312.78 252.489 314.414 252.217 316.321 252.217Z" fill="#003263"/>
<path d="M361.674 276.528C361.674 277.753 361.402 278.979 360.857 280.205C360.312 281.431 359.563 282.52 358.61 283.474C357.52 284.291 356.294 284.972 354.932 285.516C353.571 286.061 352.004 286.334 350.234 286.334C348.463 286.334 346.829 286.061 345.331 285.516C343.969 284.972 342.743 284.223 341.654 283.269C340.564 282.316 339.747 281.226 339.202 280.001C338.521 278.775 338.181 277.481 338.181 276.119H341.449C341.858 278.298 342.743 279.932 344.105 281.022C345.603 282.248 347.646 282.861 350.234 282.861C352.821 282.861 354.796 282.248 356.158 281.022C357.52 279.66 358.201 278.162 358.201 276.528C358.201 275.029 357.724 273.872 356.771 273.055C355.818 272.237 354.66 271.556 353.298 271.012C351.8 270.603 350.234 270.263 348.599 269.99C346.829 269.582 345.262 269.105 343.9 268.56C342.538 267.879 341.381 266.994 340.428 265.904C339.474 264.815 338.998 263.249 338.998 261.206C338.998 259.98 339.202 258.822 339.611 257.733C340.155 256.643 340.904 255.69 341.858 254.873C342.811 254.056 343.969 253.375 345.331 252.83C346.693 252.421 348.259 252.217 350.029 252.217C351.664 252.217 353.094 252.421 354.32 252.83C355.681 253.375 356.907 254.124 357.997 255.077C358.95 255.894 359.699 256.848 360.244 257.937C360.925 259.163 361.265 260.389 361.265 261.614H357.997C357.588 259.844 356.703 258.414 355.341 257.324C353.979 256.098 352.208 255.486 350.029 255.486C347.441 255.486 345.535 256.098 344.309 257.324C342.947 258.414 342.267 259.708 342.267 261.206C342.267 262.704 342.743 263.793 343.696 264.474C344.65 265.291 345.876 265.904 347.374 266.313C348.736 266.722 350.302 267.062 352.072 267.334C353.706 267.743 355.273 268.22 356.771 268.765C358.133 269.445 359.29 270.331 360.244 271.42C361.197 272.646 361.674 274.348 361.674 276.528Z" fill="#003263"/>
<path d="M373.523 255.896H366.985V252.423H370.05C372.637 252.423 373.932 251.197 373.932 248.746V242.617H376.996V252.423H385.372V255.896H376.996V276.53C376.996 278.709 377.54 280.343 378.63 281.433C379.856 282.386 381.286 282.863 382.92 282.863C383.601 282.863 384.214 282.863 384.759 282.863C384.895 282.726 385.099 282.658 385.372 282.658V285.518C385.099 285.791 384.759 285.927 384.35 285.927C383.805 286.199 383.124 286.336 382.307 286.336C379.72 286.336 377.609 285.45 375.974 283.68C374.34 281.909 373.523 279.526 373.523 276.53V255.896Z" fill="#003263"/>
<path d="M393.951 241.798C393.951 241.117 394.224 240.504 394.769 239.96C395.313 239.415 395.926 239.143 396.607 239.143C397.424 239.143 398.105 239.415 398.65 239.96C399.059 240.504 399.263 241.117 399.263 241.798C399.263 242.616 399.059 243.296 398.65 243.841C398.105 244.25 397.424 244.454 396.607 244.454C395.926 244.454 395.313 244.25 394.769 243.841C394.224 243.296 393.951 242.616 393.951 241.798ZM398.241 285.925H394.769V252.422H398.241V285.925Z" fill="#003263"/>
<path d="M412.95 255.896H406.617V252.423H409.477C412.065 252.423 413.358 251.197 413.358 248.746V242.617H416.423V252.423H424.799V255.896H416.423V276.53C416.423 278.709 417.036 280.343 418.262 281.433C419.351 282.386 420.781 282.863 422.552 282.863C423.233 282.863 423.777 282.863 424.186 282.863C424.458 282.726 424.663 282.658 424.799 282.658V285.518C424.527 285.791 424.254 285.927 423.982 285.927C423.301 286.199 422.552 286.336 421.735 286.336C419.283 286.336 417.24 285.45 415.606 283.68C413.835 281.909 412.95 279.526 412.95 276.53V255.896Z" fill="#003263"/>
<path d="M446.864 286.332C444.957 286.332 443.186 285.992 441.552 285.311C439.918 284.63 438.556 283.677 437.466 282.451C436.241 281.225 435.287 279.727 434.606 277.956C433.925 276.186 433.585 274.279 433.585 272.236V252.42H437.058V272.236C437.058 273.734 437.33 275.164 437.875 276.526C438.42 277.752 439.101 278.842 439.918 279.795C440.871 280.885 441.961 281.634 443.187 282.042C444.549 282.587 445.91 282.859 447.272 282.859C448.771 282.859 450.201 282.587 451.563 282.042C452.788 281.634 453.878 280.885 454.831 279.795C455.784 278.842 456.534 277.752 457.079 276.526C457.623 275.164 457.895 273.734 457.895 272.236V252.42H461.368V285.924H459.121L457.895 281.021H457.487C456.806 282.11 455.989 282.996 455.036 283.677C454.218 284.358 453.129 284.97 451.767 285.515C450.405 286.06 448.771 286.332 446.864 286.332Z" fill="#003263"/>
<path d="M475.465 255.896H468.928V252.423H471.992C474.444 252.423 475.737 251.197 475.873 248.746V242.617H478.938V252.423H487.11V255.896H478.938V276.53C478.938 278.709 479.483 280.343 480.572 281.433C481.798 282.386 483.228 282.863 484.862 282.863C485.543 282.863 486.156 282.863 486.701 282.863C486.837 282.726 486.973 282.658 487.11 282.658V285.518C486.973 285.791 486.701 285.927 486.293 285.927C485.748 286.199 485.067 286.336 484.25 286.336C481.662 286.336 479.551 285.45 477.916 283.68C476.282 281.909 475.465 279.526 475.465 276.53V255.896Z" fill="#003263"/>
<path fill-rule="evenodd" clip-rule="evenodd" d="M523.066 277.549C522.521 278.639 521.84 279.728 521.023 280.818C520.206 281.771 519.252 282.724 518.163 283.678C517.073 284.495 515.78 285.108 514.281 285.516C512.783 286.061 511.149 286.334 509.378 286.334C507.063 286.334 504.884 285.925 502.841 285.108C500.934 284.291 499.3 283.065 497.938 281.431C496.44 279.932 495.282 278.162 494.465 276.119C493.648 274.076 493.239 271.761 493.239 269.173C493.239 266.722 493.648 264.474 494.465 262.431C495.282 260.252 496.372 258.414 497.734 256.916C499.232 255.417 500.934 254.26 502.841 253.443C504.748 252.625 506.791 252.217 508.97 252.217C511.013 252.217 512.988 252.557 514.894 253.238C516.665 254.055 518.231 255.213 519.593 256.711C520.955 258.073 522.044 259.776 522.862 261.819C523.679 263.725 524.088 265.836 524.088 268.152C524.088 268.56 524.088 268.901 524.088 269.173C523.951 269.446 523.883 269.718 523.883 269.99C523.883 270.263 523.815 270.535 523.679 270.807H496.712C496.985 272.578 497.461 274.212 498.142 275.71C498.823 277.208 499.708 278.502 500.798 279.592C501.888 280.682 503.113 281.499 504.475 282.043C505.973 282.588 507.608 282.861 509.378 282.861C510.468 282.861 511.557 282.724 512.647 282.452C513.6 282.044 514.486 281.635 515.303 281.226C516.12 280.681 516.801 280.069 517.346 279.388C517.891 278.707 518.367 278.094 518.776 277.549H523.066ZM508.97 255.486C507.471 255.486 506.042 255.826 504.68 256.507C503.318 257.052 502.092 257.801 501.002 258.754C500.049 259.844 499.164 261.138 498.347 262.636C497.666 263.998 497.121 265.564 496.712 267.334H520.819C520.546 265.564 520.07 263.998 519.389 262.636C518.708 261.138 517.891 259.844 516.937 258.754C515.848 257.801 514.622 257.052 513.26 256.507C511.898 255.826 510.468 255.486 508.97 255.486Z" fill="#003263"/>
<path fill-rule="evenodd" clip-rule="evenodd" d="M577.405 269.173C577.405 271.625 576.997 273.94 576.18 276.119C575.363 278.162 574.273 279.932 572.911 281.431C571.413 283.065 569.71 284.291 567.804 285.108C566.033 285.925 564.058 286.334 561.879 286.334C559.7 286.334 557.657 285.925 555.751 285.108C553.844 284.291 552.141 283.065 550.643 281.431C549.281 279.932 548.192 278.162 547.374 276.119C546.557 274.076 546.148 271.761 546.148 269.173C546.148 266.722 546.557 264.474 547.374 262.431C548.192 260.252 549.281 258.414 550.643 256.916C552.141 255.417 553.844 254.26 555.751 253.443C557.657 252.625 559.7 252.217 561.879 252.217C564.058 252.217 566.033 252.625 567.804 253.443C569.71 254.26 571.413 255.417 572.911 256.916C574.273 258.414 575.363 260.252 576.18 262.431C576.997 264.474 577.405 266.722 577.405 269.173ZM549.622 269.173C549.622 271.216 549.962 273.055 550.643 274.689C551.324 276.323 552.209 277.753 553.299 278.979C554.388 280.205 555.682 281.158 557.18 281.839C558.679 282.52 560.245 282.861 561.879 282.861C563.514 282.861 565.012 282.52 566.374 281.839C567.872 281.158 569.165 280.205 570.255 278.979C571.345 277.753 572.23 276.323 572.911 274.689C573.592 273.055 573.932 271.216 573.932 269.173C573.932 267.266 573.592 265.428 572.911 263.657C572.23 262.023 571.345 260.593 570.255 259.367C569.165 258.141 567.872 257.188 566.374 256.507C564.875 255.826 563.377 255.486 561.879 255.486C560.245 255.486 558.679 255.826 557.18 256.507C555.682 257.188 554.388 258.141 553.299 259.367C552.209 260.593 551.324 262.023 550.643 263.657C549.962 265.428 549.622 267.266 549.622 269.173Z" fill="#003263"/>
<path d="M588.029 247.927C588.029 244.931 588.847 242.547 590.481 240.777C592.251 239.006 594.362 238.121 596.814 238.121C597.222 238.121 597.631 238.121 598.04 238.121C598.448 238.257 598.789 238.325 599.061 238.325C599.334 238.598 599.606 238.734 599.878 238.734V241.798C599.606 241.798 599.401 241.73 599.265 241.594C598.993 241.594 598.721 241.594 598.448 241.594C598.176 241.458 597.904 241.39 597.631 241.39C595.861 241.39 594.362 241.934 593.136 243.024C592.047 243.977 591.502 245.612 591.502 247.927V252.422H599.878V255.895H591.502V285.925H588.029V255.895H582.718V252.422H588.029V247.927Z" fill="#003263"/>
<path d="M627.865 238.121V259.776H653.811V238.121H657.692V285.925H653.811V263.249H627.865V285.925H624.188V238.121H627.865Z" fill="#003263"/>
<path d="M669.133 241.798C669.133 241.117 669.337 240.504 669.745 239.96C670.29 239.415 670.971 239.143 671.788 239.143C672.469 239.143 673.082 239.415 673.627 239.96C674.172 240.504 674.444 241.117 674.444 241.798C674.444 242.616 674.172 243.296 673.627 243.841C673.082 244.25 672.469 244.454 671.788 244.454C670.971 244.454 670.29 244.25 669.745 243.841C669.337 243.296 669.133 242.616 669.133 241.798ZM673.219 285.925H669.745V252.422H673.219V285.925Z" fill="#003263"/>
<path fill-rule="evenodd" clip-rule="evenodd" d="M687.723 288.581C688.404 290.624 689.562 292.258 691.196 293.484C692.831 294.846 695.214 295.527 698.346 295.527C699.845 295.527 701.207 295.254 702.432 294.71C703.794 294.165 704.952 293.416 705.906 292.462C706.859 291.509 707.608 290.351 708.153 288.989C708.697 287.764 708.97 286.402 708.97 284.903V278.775H708.561C707.744 279.864 706.791 280.886 705.701 281.839C704.884 282.52 703.726 283.201 702.228 283.882C700.866 284.563 699.3 284.903 697.53 284.903C695.487 284.903 693.512 284.495 691.605 283.678C689.835 282.724 688.268 281.499 686.906 280.001C685.408 278.502 684.319 276.8 683.638 274.893C682.82 272.85 682.412 270.739 682.412 268.56C682.412 266.245 682.82 264.066 683.638 262.023C684.319 260.116 685.408 258.414 686.906 256.916C688.268 255.417 689.835 254.26 691.605 253.443C693.512 252.625 695.487 252.217 697.53 252.217C699.3 252.217 700.866 252.489 702.228 253.034C703.726 253.715 704.884 254.396 705.701 255.077C706.791 256.03 707.744 257.052 708.561 258.141H708.97L710.196 252.421H712.443V284.903C712.443 286.81 712.102 288.649 711.421 290.419C710.604 292.054 709.583 293.552 708.357 294.914C707.131 296.14 705.633 297.093 703.863 297.774C702.092 298.591 700.253 299 698.346 299C696.304 299 694.465 298.727 692.831 298.182C691.196 297.638 689.767 296.889 688.541 295.935C687.315 294.982 686.294 293.892 685.476 292.667C684.796 291.441 684.251 290.079 683.842 288.581H687.723ZM685.885 268.56C685.885 270.331 686.225 272.033 686.906 273.667C687.451 275.166 688.268 276.528 689.358 277.753C690.447 278.843 691.741 279.728 693.239 280.409C694.601 281.09 696.1 281.431 697.734 281.431C699.232 281.431 700.662 281.09 702.024 280.409C703.522 279.728 704.816 278.843 705.906 277.753C706.995 276.528 707.88 275.166 708.561 273.667C709.106 272.033 709.379 270.331 709.379 268.56C709.379 266.653 709.106 264.951 708.561 263.453C707.88 261.819 706.995 260.389 705.906 259.163C704.816 258.073 703.522 257.188 702.024 256.507C700.662 255.826 699.232 255.486 697.734 255.486C696.236 255.486 694.737 255.826 693.239 256.507C691.741 257.188 690.447 258.073 689.358 259.163C688.268 260.389 687.451 261.819 686.906 263.453C686.225 264.951 685.885 266.653 685.885 268.56Z" fill="#003263"/>
<path d="M737.571 252.217C739.342 252.217 741.044 252.558 742.679 253.239C744.449 253.92 745.879 254.873 746.968 256.099C748.194 257.325 749.148 258.754 749.829 260.389C750.51 262.159 750.85 264.066 750.85 266.109V285.925H747.377V266.109C747.377 264.611 747.105 263.249 746.56 262.023C746.015 260.661 745.266 259.504 744.313 258.55C743.359 257.597 742.27 256.848 741.044 256.303C739.818 255.758 738.524 255.486 737.162 255.486C735.664 255.486 734.234 255.758 732.873 256.303C731.647 256.848 730.557 257.597 729.604 258.55C728.65 259.504 727.902 260.661 727.357 262.023C726.812 263.249 726.539 264.611 726.539 266.109V285.925H723.066V238.121H726.539V257.529H726.948C727.493 256.439 728.242 255.486 729.195 254.669C730.149 254.124 731.306 253.579 732.668 253.034C733.894 252.49 735.528 252.217 737.571 252.217Z" fill="#003263"/>
<path fill-rule="evenodd" clip-rule="evenodd" d="M788.441 277.549C788.032 278.639 787.419 279.728 786.602 280.818C785.785 281.771 784.831 282.724 783.742 283.678C782.516 284.495 781.154 285.108 779.656 285.516C778.294 286.061 776.66 286.334 774.753 286.334C772.438 286.334 770.327 285.925 768.42 285.108C766.513 284.291 764.811 283.065 763.313 281.431C761.951 279.932 760.861 278.162 760.044 276.119C759.227 274.076 758.818 271.761 758.818 269.173C758.818 266.722 759.227 264.474 760.044 262.431C760.861 260.252 761.951 258.414 763.313 256.916C764.675 255.417 766.309 254.26 768.216 253.443C770.123 252.625 772.166 252.217 774.345 252.217C776.524 252.217 778.498 252.557 780.269 253.238C782.176 254.055 783.81 255.213 785.172 256.711C786.534 258.073 787.624 259.776 788.441 261.819C789.258 263.725 789.667 265.836 789.667 268.152C789.667 268.56 789.598 268.901 789.462 269.173C789.462 269.446 789.462 269.718 789.462 269.99C789.326 270.263 789.258 270.535 789.258 270.807H762.291C762.427 272.578 762.836 274.212 763.517 275.71C764.198 277.208 765.084 278.502 766.173 279.592C767.263 280.682 768.556 281.499 770.054 282.043C771.416 282.588 772.983 282.861 774.753 282.861C775.979 282.861 777.137 282.724 778.226 282.452C779.179 282.044 780.065 281.635 780.882 281.226C781.699 280.681 782.38 280.069 782.925 279.388C783.47 278.707 783.946 278.094 784.355 277.549H788.441ZM774.345 255.486C772.847 255.486 771.416 255.826 770.054 256.507C768.692 257.052 767.467 257.801 766.377 258.754C765.288 259.844 764.402 261.138 763.721 262.636C762.904 263.998 762.36 265.564 762.087 267.334H785.989C785.853 265.564 785.444 263.998 784.763 262.636C784.082 261.138 783.197 259.844 782.107 258.754C781.154 257.801 779.997 257.052 778.635 256.507C777.273 255.826 775.843 255.486 774.345 255.486Z" fill="#003263"/>
<path d="M813.975 252.217V255.486H812.136C808.868 255.486 806.28 256.507 804.373 258.55C802.467 260.457 801.513 263.112 801.513 266.517V285.925H798.04V252.421H800.287L801.513 257.528H801.717C802.398 256.439 803.215 255.485 804.169 254.668C805.122 254.124 806.28 253.579 807.642 253.034C808.867 252.489 810.434 252.217 812.34 252.217H813.975Z" fill="#003263"/>
<path d="M867.705 282.657V285.925H838.083V238.121H866.888V241.39H841.76V259.367H865.049V262.84H841.76V282.657H867.705Z" fill="#003263"/>
<path fill-rule="evenodd" clip-rule="evenodd" d="M874.446 269.173C874.446 266.722 874.855 264.475 875.672 262.432C876.489 260.253 877.646 258.414 879.145 256.916C880.507 255.418 882.141 254.26 884.048 253.443C885.955 252.626 887.998 252.217 890.177 252.217C892.083 252.217 893.718 252.49 895.079 253.034C896.441 253.715 897.599 254.396 898.552 255.077C899.778 256.031 900.8 257.052 901.617 258.142H901.821V238.121H905.294V285.925H903.047L901.821 280.205H901.617C900.8 281.295 899.778 282.316 898.552 283.27C897.599 284.087 896.441 284.768 895.079 285.312C893.718 285.993 892.083 286.334 890.177 286.334C887.998 286.334 885.955 285.925 884.048 285.108C882.141 284.291 880.507 283.065 879.145 281.431C877.646 279.933 876.489 278.162 875.672 276.119C874.855 273.94 874.446 271.625 874.446 269.173ZM890.177 255.486C888.542 255.486 886.976 255.826 885.478 256.507C883.98 257.188 882.686 258.142 881.597 259.367C880.507 260.593 879.622 262.023 878.941 263.658C878.26 265.428 877.919 267.267 877.919 269.173C877.919 271.216 878.26 273.055 878.941 274.689C879.622 276.324 880.507 277.754 881.597 278.979C882.686 280.205 883.98 281.159 885.478 281.839C886.976 282.52 888.542 282.861 890.177 282.861C891.811 282.861 893.377 282.52 894.875 281.839C896.237 281.159 897.463 280.205 898.552 278.979C899.778 277.754 900.663 276.324 901.208 274.689C901.889 273.055 902.23 271.216 902.23 269.173C902.23 267.267 901.889 265.428 901.208 263.658C900.663 262.023 899.778 260.593 898.552 259.367C897.463 258.142 896.237 257.188 894.875 256.507C893.377 255.826 891.811 255.486 890.177 255.486Z" fill="#003263"/>
<path d="M929.401 286.332C927.359 286.332 925.52 285.992 923.886 285.311C922.388 284.63 921.026 283.677 919.8 282.451C918.574 281.225 917.62 279.727 916.939 277.956C916.258 276.186 915.918 274.279 915.918 272.236V252.42H919.391V272.236C919.391 273.734 919.664 275.164 920.208 276.526C920.753 277.752 921.502 278.842 922.456 279.795C923.409 280.885 924.498 281.634 925.724 282.042C926.95 282.587 928.244 282.859 929.606 282.859C931.104 282.859 932.534 282.587 933.896 282.042C935.258 281.634 936.415 280.885 937.369 279.795C938.322 278.842 939.071 277.752 939.616 276.526C940.161 275.164 940.433 273.734 940.433 272.236V252.42H943.702V285.924H941.454L940.433 281.021H940.025C939.207 282.11 938.322 282.996 937.369 283.677C936.551 284.358 935.462 284.97 934.1 285.515C932.874 286.06 931.308 286.332 929.401 286.332Z" fill="#003263"/>
<path d="M967.808 255.486C966.173 255.486 964.607 255.826 963.109 256.507C961.611 257.188 960.317 258.141 959.227 259.367C958.138 260.593 957.252 262.023 956.571 263.657C955.89 265.428 955.55 267.266 955.55 269.173C955.55 271.216 955.89 273.055 956.571 274.689C957.252 276.323 958.138 277.753 959.227 278.979C960.317 280.205 961.611 281.158 963.109 281.839C964.607 282.52 966.173 282.861 967.808 282.861C970.395 282.861 972.643 282.044 974.549 280.409C976.32 278.775 977.613 276.8 978.431 274.485H982.108C981.155 278.026 979.452 280.886 977.001 283.065C974.549 285.244 971.485 286.334 967.808 286.334C965.628 286.334 963.585 285.925 961.679 285.108C959.772 284.291 958.07 283.065 956.571 281.431C955.21 279.932 954.12 278.162 953.303 276.119C952.485 274.076 952.077 271.761 952.077 269.173C952.077 266.722 952.485 264.474 953.303 262.431C954.12 260.252 955.21 258.414 956.571 256.916C958.07 255.417 959.772 254.26 961.679 253.443C963.585 252.625 965.628 252.217 967.808 252.217C971.621 252.217 974.685 253.306 977.001 255.486C979.452 257.665 981.155 260.457 982.108 263.861H978.431C977.613 261.546 976.32 259.571 974.549 257.937C972.643 256.303 970.395 255.486 967.808 255.486Z" fill="#003263"/>
<path fill-rule="evenodd" clip-rule="evenodd" d="M1002.33 252.217C1004.1 252.217 1005.74 252.489 1007.24 253.034C1008.73 253.579 1010.03 254.396 1011.12 255.486C1012.21 256.439 1013.02 257.665 1013.57 259.163C1014.25 260.525 1014.59 262.091 1014.59 263.861V285.925H1012.14L1011.12 281.022H1010.71C1010.03 282.112 1009.21 282.997 1008.26 283.678C1007.3 284.359 1006.21 284.972 1004.99 285.516C1003.63 286.061 1001.99 286.334 1000.09 286.334C996.273 286.334 993.345 285.448 991.302 283.678C989.259 281.771 988.237 279.524 988.237 276.936C988.237 275.302 988.578 273.804 989.259 272.442C989.94 271.216 991.029 270.058 992.527 268.969C993.889 268.015 995.796 267.266 998.247 266.722C1000.56 266.041 1003.42 265.7 1006.83 265.7H1011.12V263.861C1011.12 261.41 1010.3 259.435 1008.67 257.937C1007.17 256.303 1005.06 255.486 1002.33 255.486C999.609 255.486 997.566 256.098 996.204 257.324C994.706 258.414 993.685 259.844 993.14 261.614H989.667C989.94 260.389 990.416 259.231 991.097 258.141C991.778 256.916 992.664 255.894 993.753 255.077C994.706 254.124 995.932 253.375 997.43 252.83C998.929 252.421 1000.56 252.217 1002.33 252.217ZM1000.49 282.861C1003.76 282.861 1006.35 281.907 1008.26 280.001C1010.16 278.094 1011.12 275.506 1011.12 272.237V269.173H1006.83C1003.97 269.173 1001.52 269.377 999.473 269.786C997.567 270.195 996 270.739 994.775 271.42C993.685 272.101 992.868 272.918 992.323 273.872C991.915 274.825 991.71 275.847 991.71 276.936C991.71 278.434 992.459 279.796 993.958 281.022C995.32 282.248 997.499 282.861 1000.49 282.861Z" fill="#003263"/>
<path d="M1027.46 255.896H1020.92V252.423H1023.99C1026.58 252.423 1027.87 251.197 1027.87 248.746V242.617H1030.93V252.423H1039.31V255.896H1030.93V276.53C1030.93 278.709 1031.48 280.343 1032.57 281.433C1033.79 282.386 1035.29 282.863 1037.06 282.863C1037.61 282.863 1038.15 282.863 1038.7 282.863C1038.83 282.726 1039.04 282.658 1039.31 282.658V285.518C1039.04 285.791 1038.7 285.927 1038.29 285.927C1037.74 286.199 1037.06 286.336 1036.25 286.336C1033.66 286.336 1031.55 285.45 1029.91 283.68C1028.28 281.909 1027.46 279.526 1027.46 276.53V255.896Z" fill="#003263"/>
<path d="M1047.89 241.798C1047.89 241.117 1048.16 240.504 1048.71 239.96C1049.25 239.415 1049.87 239.143 1050.55 239.143C1051.36 239.143 1052.05 239.415 1052.59 239.96C1053 240.504 1053.2 241.117 1053.2 241.798C1053.2 242.616 1053 243.296 1052.59 243.841C1052.05 244.25 1051.36 244.454 1050.55 244.454C1049.87 244.454 1049.25 244.25 1048.71 243.841C1048.16 243.296 1047.89 242.616 1047.89 241.798ZM1052.18 285.925H1048.71V252.422H1052.18V285.925Z" fill="#003263"/>
<path fill-rule="evenodd" clip-rule="evenodd" d="M1092.43 269.173C1092.43 271.625 1092.02 273.94 1091.2 276.119C1090.38 278.162 1089.29 279.932 1087.93 281.431C1086.57 283.065 1084.94 284.291 1083.03 285.108C1081.12 285.925 1079.08 286.334 1076.9 286.334C1074.72 286.334 1072.68 285.925 1070.77 285.108C1068.86 284.291 1067.23 283.065 1065.87 281.431C1064.37 279.932 1063.21 278.162 1062.4 276.119C1061.58 274.076 1061.17 271.761 1061.17 269.173C1061.17 266.722 1061.58 264.474 1062.4 262.431C1063.21 260.252 1064.37 258.414 1065.87 256.916C1067.23 255.417 1068.86 254.26 1070.77 253.443C1072.68 252.625 1074.72 252.217 1076.9 252.217C1079.08 252.217 1081.12 252.625 1083.03 253.443C1084.94 254.26 1086.57 255.417 1087.93 256.916C1089.29 258.414 1090.38 260.252 1091.2 262.431C1092.02 264.474 1092.43 266.722 1092.43 269.173ZM1064.64 269.173C1064.64 271.216 1064.98 273.055 1065.66 274.689C1066.35 276.323 1067.23 277.753 1068.32 278.979C1069.41 280.205 1070.7 281.158 1072.2 281.839C1073.7 282.52 1075.27 282.861 1076.9 282.861C1078.53 282.861 1080.1 282.52 1081.6 281.839C1082.96 281.158 1084.25 280.205 1085.48 278.979C1086.57 277.753 1087.46 276.323 1088.14 274.689C1088.68 273.055 1088.95 271.216 1088.95 269.173C1088.95 267.266 1088.68 265.428 1088.14 263.657C1087.46 262.023 1086.57 260.593 1085.48 259.367C1084.25 258.141 1082.96 257.188 1081.6 256.507C1080.1 255.826 1078.53 255.486 1076.9 255.486C1075.27 255.486 1073.7 255.826 1072.2 256.507C1070.7 257.188 1069.41 258.141 1068.32 259.367C1067.23 260.593 1066.35 262.023 1065.66 263.657C1064.98 265.428 1064.64 267.266 1064.64 269.173Z" fill="#003263"/>
<path d="M1115.31 252.217C1117.21 252.217 1118.98 252.557 1120.62 253.238C1122.25 253.919 1123.61 254.873 1124.7 256.098C1125.93 257.324 1126.88 258.754 1127.56 260.388C1128.24 262.159 1128.58 264.066 1128.58 266.109V285.925H1125.11V266.109C1125.11 264.611 1124.84 263.249 1124.29 262.023C1123.89 260.661 1123.2 259.503 1122.25 258.55C1121.3 257.597 1120.21 256.847 1118.98 256.303C1117.76 255.758 1116.4 255.486 1114.9 255.486C1113.4 255.486 1111.97 255.758 1110.61 256.303C1109.38 256.847 1108.29 257.597 1107.34 258.55C1106.39 259.503 1105.64 260.661 1105.09 262.023C1104.55 263.249 1104.27 264.611 1104.27 266.109V285.925H1100.8V252.421H1103.05L1104.27 257.528H1104.68C1105.23 256.439 1106.04 255.485 1107.13 254.668C1107.95 254.124 1109.04 253.579 1110.4 253.034C1111.76 252.489 1113.4 252.217 1115.31 252.217Z" fill="#003263"/>
<path d="M158.3 198.5C152.9 198.5 148.5 200.433 145.1 204.3C141.7 208.1 140 212.833 140 218.5C140 224.3 141.7 229.167 145.1 233.1C148.433 237.033 152.867 239 158.4 239C163.867 239 168.367 237 171.9 233C175.433 229 177.2 224.2 177.2 218.6C177.2 213 175.4 208.267 171.8 204.4C168.2 200.467 163.7 198.5 158.3 198.5Z" fill="#003263"/>
<path fill-rule="evenodd" clip-rule="evenodd" d="M204.2 29.6992V218.999C204.2 267.199 165.1 306.299 116.9 306.299C68.5999 306.299 29.5 267.199 29.5 218.999V29.6992H204.2ZM51.8999 124.999H95.7998V108.799H89.2V118.399H66.7V101.099H86.2998V94.4992H66.7V78.7992H89.2V88.0992H95.7998V72.1992H51.8999V78.7992H58.7V118.399H51.8999V124.999ZM116.8 168.399H38.7998V214.599C38.7998 257.699 73.6998 292.599 116.8 292.599V168.399ZM185.8 218.699C185.8 210.899 183.267 204.433 178.2 199.299C173.133 194.166 166.5 191.599 158.3 191.599C150.1 191.599 143.533 194.233 138.6 199.499C133.667 204.766 131.2 211.133 131.2 218.599C131.2 221.999 131.767 225.399 132.9 228.799C134.1 232.266 136.167 235.466 139.1 238.399C142.033 241.399 145.633 243.566 149.9 244.899C147.5 245.433 145.567 246.499 144.1 248.099L146.3 251.299C147.7 250.033 149.5 249.399 151.7 249.399C153.9 249.399 156.9 250.333 160.7 252.199C165.1 254.333 168.567 255.399 171.1 255.399C171.7 255.399 172.4 255.333 173.2 255.199L176 248.699C174.867 248.899 173.933 248.999 173.2 248.999C170.933 248.999 167.767 248.166 163.7 246.499L162.1 245.799C166.967 245.399 171.333 243.699 175.2 240.699C179.067 237.699 181.8 234.333 183.4 230.599C185 226.799 185.8 222.833 185.8 218.699ZM195.1 43.7992H170.6V78.3992L156.1 63.8992L141.6 78.3992V43.7992H116.8V168.399H195.1V43.7992Z" fill="#003263"/>
<path d="M171.9 233C168.367 237 163.867 239 158.4 239C152.867 239 148.433 237.033 145.1 233.1C141.7 229.167 140 224.3 140 218.5C140 212.833 141.7 208.1 145.1 204.3C148.5 200.433 152.9 198.5 158.3 198.5C163.7 198.5 168.2 200.467 171.8 204.4C175.4 208.267 177.2 213 177.2 218.6C177.2 224.2 175.433 229 171.9 233Z" fill="#003263"/>
<path d="M116.9 336.7C148.1 336.7 177.4 324.5 199.5 302.5C221.6 280.4 233.7 251 233.7 219.8V111.2C233.7 100.7 227.8 91.2 218.4 86.4C218.333 86.4 218.267 86.3667 218.2 86.3V219.8C218.2 275.7 172.7 321.2 116.8 321.2C61.0998 321.2 15.5 274.7 15.5 218.9V15.5H147.1C147.1 15.4333 147.067 15.4 147 15.4C142.3 5.99999 132.7 0 122.2 0H0V219.8C0 251 12.2 280.4 34.2 302.5C56.2999 324.5 85.5999 336.7 116.9 336.7Z" fill="#003263"/>
<path d="M181.2 15.5H218.2V52.4C218.2 62.6 224.2 71.8 233.6 75.9C233.6 75.9 233.633 75.9 233.7 75.9V0H157.5C157.5 0.0666667 157.5 0.13333 157.5 0.199997C161.6 9.5 171 15.5 181.2 15.5Z" fill="#003263"/>
<path d="M157.699 92.8998C159.599 93.2998 161.099 94.8998 161.399 96.7998C161.699 98.8998 160.699 100.8 158.999 101.7C158.499 102 158.199 102.5 158.199 103.1V104C158.199 104.9 157.499 105.6 156.599 105.6C155.699 105.6 154.999 104.9 154.999 104V103.1C154.999 102.5 154.699 102 154.199 101.7C152.799 100.9 151.799 99.3998 151.799 97.5998C151.799 94.5998 154.499 92.1998 157.699 92.8998ZM148.999 119.9L148.199 120.4C147.699 120.7 147.399 121.2 147.399 121.8C147.399 123.5 146.599 125.1 145.099 126C142.399 127.5 138.999 126.3 137.999 123.2C137.399 121.4 138.099 119.3 139.599 118C141.299 116.7 143.399 116.7 144.999 117.6C145.499 117.9 146.099 117.9 146.599 117.6L147.399 117.2C148.199 116.7 149.199 117 149.599 117.7V117.8C149.999 118.5 149.799 119.5 148.999 119.9ZM149.599 109.7C149.199 110.4 148.199 110.7 147.399 110.3L146.599 109.8C146.099 109.5 145.499 109.5 144.999 109.8C143.599 110.6 141.799 110.7 140.199 109.8C137.599 108.3 136.999 104.8 139.099 102.4C140.399 100.9 142.499 100.4 144.399 101.1C146.299 101.9 147.399 103.7 147.399 105.6C147.399 106.2 147.699 106.7 148.199 107L148.999 107.5C149.799 107.9 149.999 108.9 149.599 109.7ZM155.599 134.6C153.599 134.2 152.099 132.5 151.799 130.6C151.499 128.5 152.599 126.6 154.199 125.7C154.699 125.4 154.999 124.9 154.999 124.3V123.4C154.999 122.5 155.699 121.8 156.599 121.8C157.499 121.8 158.199 122.5 158.199 123.4V124.3C158.199 124.9 158.499 125.4 158.999 125.7C160.499 126.5 161.399 128.1 161.399 129.8C161.399 132.9 158.699 135.2 155.599 134.6ZM156.599 119.1C153.699 119.1 151.199 116.7 151.199 113.7C151.199 110.8 153.699 108.4 156.599 108.4C159.599 108.4 161.999 110.8 161.999 113.7C161.999 116.7 159.599 119.1 156.599 119.1ZM174.099 125C172.799 126.5 170.699 127 168.799 126.3C166.899 125.5 165.799 123.7 165.799 121.8C165.799 121.2 165.499 120.7 164.999 120.4L164.199 119.9C163.399 119.5 163.199 118.5 163.599 117.8V117.7C164.099 117 164.999 116.7 165.799 117.2L166.599 117.6C167.099 117.9 167.699 117.9 168.199 117.6C169.599 116.8 171.399 116.7 172.999 117.6C175.599 119.1 176.299 122.7 174.099 125ZM173.599 109.4C171.999 110.7 169.799 110.8 168.199 109.8C167.699 109.5 167.099 109.5 166.599 109.8L165.799 110.3C164.999 110.7 164.099 110.4 163.599 109.7C163.199 108.9 163.399 107.9 164.199 107.5L164.999 107C165.499 106.7 165.799 106.2 165.799 105.6C165.799 104 166.599 102.4 168.199 101.5C170.799 99.9998 174.199 101.2 175.199 104.2C175.799 106.1 175.099 108.2 173.599 109.4Z" fill="#003263"/>
<path d="M168.2 101.499C166.6 102.399 165.8 103.999 165.8 105.599C165.8 106.199 165.501 106.699 165.001 106.999L164.2 107.499C163.4 107.899 163.2 108.899 163.6 109.699C164.1 110.399 165 110.699 165.8 110.299L166.6 109.799C167.1 109.499 167.7 109.499 168.2 109.799C169.8 110.799 172 110.699 173.6 109.399C175.1 108.199 175.8 106.099 175.2 104.199C174.2 101.199 170.8 99.9993 168.2 101.499Z" fill="#003263"/>
<path d="M149 107.5L148.2 107C147.7 106.7 147.4 106.2 147.4 105.6C147.4 103.7 146.3 101.9 144.4 101.1C142.5 100.4 140.4 100.9 139.1 102.4C137 104.8 137.6 108.3 140.2 109.8C141.8 110.7 143.6 110.6 145 109.8C145.5 109.5 146.1 109.5 146.6 109.8L147.4 110.3C148.2 110.7 149.2 110.4 149.6 109.7C150 108.9 149.8 107.9 149 107.5Z" fill="#003263"/>
<path d="M173.001 117.599C171.401 116.699 169.6 116.799 168.2 117.599C167.7 117.899 167.1 117.899 166.6 117.599L165.8 117.199C165 116.699 164.1 116.999 163.6 117.699V117.799C163.2 118.499 163.4 119.499 164.2 119.899L165.001 120.399C165.501 120.699 165.8 121.199 165.8 121.799C165.8 123.699 166.9 125.499 168.8 126.299C170.7 126.999 172.8 126.499 174.1 124.999C176.3 122.699 175.601 119.099 173.001 117.599Z" fill="#003263"/>
<path d="M156.6 108.4C153.7 108.4 151.2 110.8 151.2 113.7C151.2 116.7 153.7 119.1 156.6 119.1C159.6 119.1 162 116.7 162 113.7C162 110.8 159.6 108.4 156.6 108.4Z" fill="#003263"/>
<path d="M159 125.701C158.5 125.401 158.2 124.901 158.2 124.301V123.401C158.2 122.501 157.499 121.801 156.599 121.801C155.699 121.801 155 122.501 155 123.401V124.301C155 124.901 154.7 125.401 154.2 125.701C152.6 126.601 151.499 128.501 151.799 130.601C152.099 132.501 153.599 134.201 155.599 134.601C158.699 135.201 161.399 132.901 161.399 129.801C161.399 128.101 160.5 126.501 159 125.701Z" fill="#003263"/>
<path d="M149.599 117.699C149.199 116.999 148.199 116.699 147.399 117.199L146.599 117.599C146.099 117.899 145.499 117.899 144.999 117.599C143.399 116.699 141.299 116.699 139.599 117.999C138.099 119.299 137.399 121.399 137.999 123.199C138.999 126.299 142.399 127.499 145.099 125.999C146.599 125.099 147.399 123.499 147.399 121.799C147.399 121.199 147.699 120.699 148.199 120.399L148.999 119.899C149.799 119.499 149.999 118.499 149.599 117.799V117.699Z" fill="#003263"/>
<path d="M154.2 101.7C154.7 102 155 102.5 155 103.1V104C155 104.9 155.7 105.6 156.6 105.6C157.5 105.6 158.2 104.9 158.2 104V103.1C158.2 102.5 158.5 102 159 101.7C160.7 100.8 161.7 98.8998 161.4 96.7998C161.1 94.8998 159.6 93.2998 157.7 92.8998C154.5 92.1998 151.8 94.5998 151.8 97.5998C151.8 99.3998 152.8 100.9 154.2 101.7Z" fill="#003263"/>
<path d="M69.6001 207.799C70.0001 202.199 73.4001 200.199 74.6001 197.899C75.8001 195.499 75.4001 191.699 75.4001 191.699C75.4001 191.699 80.6002 193.799 80.7002 201.799C82.4002 202.399 83.2002 197.099 83.2002 197.099C83.2002 197.099 85.8002 199.999 85.5002 206.699C85.1002 213.299 79.8 217.299 79.8 217.299C79.8 217.299 82.5 211.799 81.8 208.999C80.9 211.299 78.7002 211.499 78.7002 211.499C78.7002 211.499 81.3002 204.899 76.2002 202.099C76.1002 206.499 75.6002 205.499 74.2002 209.099C72.9002 212.599 76.6001 217.699 76.6001 217.699C76.6001 217.699 69.2001 213.399 69.6001 207.799ZM69.6001 220.899C69.5334 220.433 69.5669 220.033 69.7002 219.699H86.9001C87.0335 220.033 87.1001 220.433 87.1001 220.899C87.1001 221.899 86.8002 222.699 86.0002 222.899H86.9001C87.2001 223.299 87.4001 223.799 87.4001 224.299C87.4001 225.599 86.4002 226.599 85.2002 226.599H85.1001C85.1668 226.799 85.2002 227.033 85.2002 227.299C85.2002 228.099 84.6 228.799 83.8 228.899L83.2002 232.399H84.4001C84.7001 232.699 84.8 233.099 84.8 233.499C84.8 234.499 84.0002 235.199 83.0002 235.199L80.8 255.699H80.7002C80.6002 256.899 79.5 257.899 78.3 257.899C76.9 257.899 75.8 256.799 75.8 255.399L73.6001 235.199C72.6001 235.199 71.8 234.499 71.8 233.499C71.8 233.099 71.9002 232.699 72.2002 232.399H73.5002L72.8 228.899C72 228.799 71.4001 228.099 71.4001 227.299C71.4001 227.033 71.4336 226.799 71.5002 226.599H71.4001C70.2001 226.599 69.2002 225.599 69.2002 224.299C69.2002 223.799 69.4002 223.299 69.7002 222.899H70.6001C69.9001 222.699 69.6001 221.899 69.6001 220.899Z" fill="#003263"/>
<path d="M76.5996 217.699C76.5996 217.699 72.8997 212.599 74.1997 209.099C75.5997 205.499 76.0997 206.499 76.1997 202.099C81.2997 204.899 78.6997 211.499 78.6997 211.499C78.6997 211.499 80.8996 211.299 81.7996 208.999C82.4996 211.799 79.7996 217.299 79.7996 217.299C79.7996 217.299 85.0998 213.299 85.4998 206.699C85.7998 199.999 83.1997 197.099 83.1997 197.099C83.1997 197.099 82.3997 202.399 80.6997 201.799C80.5997 193.799 75.3997 191.699 75.3997 191.699C75.3997 191.699 75.7996 195.499 74.5996 197.899C73.3996 200.199 69.9996 202.199 69.5996 207.799C69.1996 213.399 76.5996 217.699 76.5996 217.699Z" fill="#003263"/>
<path d="M87.0997 220.899C87.0997 220.433 87.0331 220.033 86.8998 219.699H69.6998C69.5665 220.033 69.533 220.433 69.5997 220.899C69.5997 221.899 69.8997 222.699 70.5997 222.899H85.9999C86.7999 222.699 87.0997 221.899 87.0997 220.899Z" fill="#003263"/>
<path d="M69.2002 224.3C69.2002 225.6 70.2001 226.6 71.4001 226.6H71.5002C71.5669 226.467 71.6335 226.367 71.7002 226.3H84.9001C84.9668 226.367 85.0334 226.467 85.1001 226.6H85.2002C86.4002 226.6 87.4001 225.6 87.4001 224.3C87.4001 223.8 87.2001 223.3 86.9001 222.9H86.0002C85.8669 222.967 85.6668 223 85.4001 223H71.2002C71.0002 223 70.8001 222.967 70.6001 222.9H69.7002C69.4002 223.3 69.2002 223.8 69.2002 224.3Z" fill="#003263"/>
<path d="M85.3997 223C85.6663 223 85.8664 222.967 85.9998 222.9H70.5996C70.7996 222.967 70.9997 223 71.1997 223H85.3997Z" fill="#003263"/>
<path d="M73.5 232.5V232.4H72.2C71.9 232.7 71.7998 233.1 71.7998 233.5C71.7998 234.5 72.5999 235.2 73.5999 235.2V235.1H78.2998H83.0999L83 235.2C84 235.2 84.7998 234.5 84.7998 233.5C84.7998 233.1 84.6999 232.7 84.3999 232.4H83.2L83.0999 232.5H73.5Z" fill="#003263"/>
<path d="M73 228.9C72.9333 228.9 72.8665 228.9 72.7998 228.9L73.5 232.4H83.2L83.7998 228.9C83.7331 228.9 83.7 228.9 83.7 228.9H73Z" fill="#003263"/>
<path d="M73.5 232.5H83.0999L83.2 232.4H73.5V232.5Z" fill="#003263"/>
<path d="M75.7996 255.399C75.7996 256.799 76.8996 257.899 78.2996 257.899C79.4996 257.899 80.5997 256.899 80.6997 255.699H80.7996L82.9998 235.199H73.5996L75.7996 255.399Z" fill="#003263"/>
<path d="M78.2996 235.1H73.5996V235.2H82.9998L83.0996 235.1H78.2996Z" fill="#003263"/>
<path d="M71.4004 227.3C71.4004 228.1 72.0003 228.8 72.8003 228.9L72.7004 228.4H83.9004L83.8003 228.9C84.6003 228.8 85.2004 228.1 85.2004 227.3C85.2004 227.033 85.167 226.8 85.1003 226.6H71.5005C71.4338 226.8 71.4004 227.033 71.4004 227.3Z" fill="#003263"/>
<path d="M71.7 226.301C71.6333 226.367 71.5667 226.467 71.5 226.601H85.0999C85.0332 226.467 84.9666 226.367 84.8999 226.301H71.7Z" fill="#003263"/>
<path d="M72.7002 228.4L72.8 228.9C72.8667 228.9 72.9336 228.9 73.0002 228.9H83.7002C83.7002 228.9 83.7334 228.9 83.8 228.9L83.9001 228.4H72.7002Z" fill="#003263"/>
</svg>
