<svg width="24" height="24" viewBox="0 0 24 24" fill="none" xmlns="http://www.w3.org/2000/svg">
<rect width="24" height="24" rx="12" fill="#4D54CE"/>
<path d="M10.3846 15C10.282 14.9997 10.1806 14.9807 10.0867 14.9441C9.99274 14.9076 9.90827 14.8542 9.83852 14.7874L6.20278 11.3533C6.06687 11.2247 5.99407 11.0535 6.00038 10.8772C6.00669 10.7009 6.09161 10.5341 6.23644 10.4134C6.38128 10.2928 6.57418 10.2281 6.77269 10.2337C6.97121 10.2393 7.15909 10.3147 7.295 10.4433L10.3771 13.3593L16.6686 7.24833C16.7325 7.17774 16.8119 7.11948 16.902 7.07713C16.9921 7.03478 17.0911 7.00925 17.1927 7.00208C17.2944 6.99492 17.3966 7.00628 17.4931 7.03547C17.5896 7.06467 17.6784 7.11107 17.754 7.17184C17.8296 7.23261 17.8904 7.30645 17.9327 7.38884C17.975 7.47124 17.9978 7.56043 17.9999 7.65095C18.0019 7.74147 17.9831 7.83141 17.9445 7.91523C17.906 7.99906 17.8486 8.07501 17.7758 8.13841L10.9382 14.7808C10.8691 14.8488 10.7849 14.9034 10.691 14.9411C10.597 14.9788 10.4952 14.9989 10.3921 15H10.3846Z" fill="white"/>
</svg>
