<svg width="20" height="20" viewBox="0 0 20 20" fill="none" xmlns="http://www.w3.org/2000/svg">
<g clip-path="url(#clip0_296_10040)">
<g filter="url(#filter0_dii_296_10040)">
<circle cx="10" cy="10" r="10" fill="#151515"/>
<circle cx="10" cy="10" r="9.5" stroke="black" stroke-opacity="0.5"/>
</g>
<g clip-path="url(#clip1_296_10040)">
<path d="M14.7676 6.79751C14.4582 6.45671 13.9558 6.45693 13.646 6.79751L8.59787 12.3507L6.35419 9.88265C6.04438 9.54185 5.54217 9.54185 5.23236 9.88265C4.92255 10.2234 4.92255 10.7759 5.23236 11.1167L8.03684 14.2016C8.19165 14.3719 8.39464 14.4572 8.59765 14.4572C8.80067 14.4572 9.00386 14.3721 9.15867 14.2016L14.7676 8.0315C15.0775 7.69094 15.0775 7.13828 14.7676 6.79751Z" fill="white"/>
</g>
</g>
<defs>
<filter id="filter0_dii_296_10040" x="-2" y="-3" width="25" height="26" filterUnits="userSpaceOnUse" color-interpolation-filters="sRGB">
<feFlood flood-opacity="0" result="BackgroundImageFix"/>
<feColorMatrix in="SourceAlpha" type="matrix" values="0 0 0 0 0 0 0 0 0 0 0 0 0 0 0 0 0 0 127 0" result="hardAlpha"/>
<feOffset/>
<feComposite in2="hardAlpha" operator="out"/>
<feColorMatrix type="matrix" values="0 0 0 0 0 0 0 0 0 0 0 0 0 0 0 0 0 0 0.16 0"/>
<feBlend mode="normal" in2="BackgroundImageFix" result="effect1_dropShadow_296_10040"/>
<feBlend mode="normal" in="SourceGraphic" in2="effect1_dropShadow_296_10040" result="shape"/>
<feColorMatrix in="SourceAlpha" type="matrix" values="0 0 0 0 0 0 0 0 0 0 0 0 0 0 0 0 0 0 127 0" result="hardAlpha"/>
<feOffset dx="-2" dy="-3"/>
<feGaussianBlur stdDeviation="2.5"/>
<feComposite in2="hardAlpha" operator="arithmetic" k2="-1" k3="1"/>
<feColorMatrix type="matrix" values="0 0 0 0 0 0 0 0 0 0 0 0 0 0 0 0 0 0 0.45 0"/>
<feBlend mode="overlay" in2="shape" result="effect2_innerShadow_296_10040"/>
<feColorMatrix in="SourceAlpha" type="matrix" values="0 0 0 0 0 0 0 0 0 0 0 0 0 0 0 0 0 0 127 0" result="hardAlpha"/>
<feOffset dx="3" dy="3"/>
<feGaussianBlur stdDeviation="3.5"/>
<feComposite in2="hardAlpha" operator="arithmetic" k2="-1" k3="1"/>
<feColorMatrix type="matrix" values="0 0 0 0 0 0 0 0 0 0 0 0 0 0 0 0 0 0 0.45 0"/>
<feBlend mode="overlay" in2="effect2_innerShadow_296_10040" result="effect3_innerShadow_296_10040"/>
</filter>
<clipPath id="clip0_296_10040">
<rect width="20" height="20" fill="white"/>
</clipPath>
<clipPath id="clip1_296_10040">
<rect width="10" height="11" fill="white" transform="translate(5 5)"/>
</clipPath>
</defs>
</svg>
