<svg width="151" height="152" viewBox="0 0 151 152" fill="none" xmlns="http://www.w3.org/2000/svg">
<path d="M128.089 79.8119L143.151 76.9831L142.79 79.9008L129.771 82.1767L130.271 81.3923L130.006 83.5359L129.714 82.6332L141.821 87.721L141.471 90.5394L127.513 84.4564L128.089 79.8119Z" fill="white"/>
<path d="M126.231 90.0627L140.151 94.4647L139.295 97.1725L125.374 92.7706L126.231 90.0627Z" fill="white"/>
<path d="M124.437 95.7014L137.473 102.276L136.221 104.758L123.185 98.1836L124.437 95.7014ZM123.365 97.8265L125.508 98.9072L122.527 104.818L120.384 103.737L123.365 97.8265ZM128.919 100.627L131.062 101.708L128.315 107.155L126.172 106.074L128.919 100.627ZM134.258 103.32L136.401 104.401L133.492 110.169L131.349 109.088L134.258 103.32Z" fill="white"/>
<path d="M118.619 106.748L131.844 113.966L129.842 116.119L118.485 109.682L119.353 109.424L117.991 110.889L118.253 109.931L125.523 119.941L123.861 121.728L115.595 110L118.619 106.748ZM112.681 113.134L125.155 120.337L123.426 122.197L112.669 115.936L113.592 115.62L112.257 117.055L112.438 116.185L119.927 126.782L118.034 128.817L109.603 116.444L112.681 113.134Z" fill="white"/>
<path d="M102.061 126.51L103.111 128.735L100.543 129.948C100.024 130.192 99.6386 130.5 99.3858 130.87C99.1208 131.246 98.9833 131.657 98.9733 132.104C98.9511 132.557 99.0511 133.018 99.2731 133.489C99.4951 133.959 99.788 134.329 100.152 134.6C100.503 134.876 100.906 135.025 101.358 135.048C101.805 135.087 102.287 134.985 102.806 134.74L105.374 133.528L106.424 135.752L104.073 136.862C102.964 137.386 101.938 137.649 100.995 137.652C100.041 137.66 99.1994 137.423 98.4707 136.942C97.7476 136.472 97.1698 135.779 96.7371 134.863L96.6005 134.574C96.1678 133.657 95.9971 132.765 96.0882 131.896C96.1851 131.039 96.5371 130.239 97.1443 129.495C97.7452 128.769 98.6002 128.144 99.7095 127.621L102.061 126.51ZM102.354 121.418L108.631 134.71L106.062 135.923L99.7861 122.63L102.354 121.418Z" fill="white"/>
<path d="M91.1116 126.501L93.9761 140.919L91.1905 141.473L88.3261 127.054L91.1116 126.501ZM82.3626 128.239L87.9961 133.604L84.877 134.224L79.1063 128.886L82.3626 128.239ZM90.1009 131.677L90.5491 133.933L86.9004 134.658C86.3903 134.759 85.973 134.951 85.6484 135.233C85.3107 135.518 85.0749 135.87 84.941 136.291C84.8072 136.712 84.7883 137.164 84.8844 137.648C84.9831 138.145 85.1748 138.562 85.4594 138.9C85.744 139.238 86.0967 139.474 86.5175 139.607C86.9252 139.744 87.3841 139.762 87.8942 139.66L91.5429 138.935L92.0144 141.309L88.66 141.975C87.5091 142.204 86.4815 142.231 85.5769 142.058C84.6593 141.887 83.9028 141.5 83.3074 140.898C82.712 140.296 82.3103 139.471 82.1025 138.425L82.0401 138.111C81.8297 137.052 81.8923 136.135 82.228 135.362C82.5506 134.591 83.0966 133.952 83.8661 133.446C84.6355 132.94 85.5956 132.572 86.7465 132.344L90.1009 131.677Z" fill="white"/>
<path d="M71.1635 128.084C72.4792 128.191 73.6032 128.517 74.5356 129.061C75.4547 129.603 76.203 130.273 76.7805 131.069C77.3436 131.877 77.7496 132.726 77.9984 133.616C78.2329 134.518 78.3172 135.374 78.2514 136.185L78.2158 136.623C78.1435 137.513 77.9123 138.384 77.5221 139.236C77.1309 140.1 76.5872 140.865 75.8911 141.531C75.1816 142.196 74.3312 142.702 73.3398 143.05C72.3474 143.411 71.2066 143.539 69.9175 143.434C68.6417 143.33 67.5432 143.021 66.6219 142.504C65.6996 142.001 64.9486 141.365 64.369 140.596C63.776 139.825 63.3562 138.982 63.1096 138.066C62.8618 137.163 62.7741 136.266 62.8463 135.375L62.8819 134.937C62.9478 134.126 63.1757 133.295 63.5659 132.444C63.9417 131.605 64.4793 130.833 65.1786 130.127C65.8637 129.433 66.7101 128.893 67.718 128.507C68.7126 128.12 69.8611 127.979 71.1635 128.084ZM70.9499 130.716C70.2057 130.655 69.5304 130.734 68.9241 130.953C68.3045 131.17 67.7698 131.494 67.3201 131.926C66.856 132.37 66.4934 132.882 66.2322 133.463C65.9566 134.056 65.7913 134.691 65.7363 135.369C65.677 136.1 65.7355 136.78 65.9118 137.41C66.0748 138.039 66.3506 138.596 66.7392 139.083C67.1145 139.568 67.5909 139.961 68.1684 140.262C68.746 140.563 69.4002 140.743 70.1311 140.803C70.8753 140.863 71.5567 140.791 72.1752 140.587C72.7938 140.383 73.334 140.073 73.796 139.655C74.2446 139.237 74.6067 138.731 74.8823 138.138C75.1445 137.544 75.3053 136.882 75.3647 136.151C75.4197 135.473 75.3657 134.82 75.2027 134.191C75.0253 133.575 74.75 133.011 74.3769 132.499C73.9894 131.999 73.5074 131.592 72.9309 131.278C72.3545 130.964 71.6941 130.776 70.9499 130.716Z" fill="white"/>
<path d="M58.0494 125.383C59.0424 125.734 59.847 126.238 60.4632 126.895C61.0795 127.552 61.4615 128.33 61.6094 129.231C61.7572 130.132 61.6377 131.13 61.2506 132.223L61.0371 132.826L58.3787 131.885L58.6723 131.056C58.9303 130.327 58.9213 129.673 58.6452 129.094C58.3646 128.528 57.8787 128.123 57.1874 127.878C56.4835 127.629 55.8508 127.639 55.2892 127.907C54.7106 128.183 54.2923 128.685 54.0342 129.414L51.4517 136.711L48.7745 135.763L51.2769 128.693C51.664 127.599 52.1983 126.749 52.88 126.142C53.5618 125.534 54.3424 125.167 55.2219 125.04C56.1014 124.913 57.0439 125.027 58.0494 125.383ZM57.2036 138.322L56.3695 140.679L48.0738 137.743L48.9079 135.386L57.2036 138.322Z" fill="white"/>
<path d="M51.1029 123.015L43.4929 135.475L41.1204 134.026L48.7304 121.566L51.1029 123.015ZM49.0718 121.775L47.8208 123.823L42.1712 120.372L43.4222 118.324L49.0718 121.775ZM45.8297 127.083L44.5787 129.131L39.3729 125.952L40.6239 123.903L45.8297 127.083ZM42.7127 132.186L41.4617 134.234L35.9487 130.867L37.1997 128.819L42.7127 132.186Z" fill="white"/>
<path d="M37.8204 112.659C38.7572 113.589 39.3971 114.553 39.7401 115.551C40.0832 116.549 40.2045 117.525 40.1043 118.477C39.9946 119.42 39.7291 120.303 39.3078 121.125C38.8865 121.946 38.3894 122.646 37.8164 123.223L37.5064 123.535C36.8676 124.179 36.1389 124.714 35.3202 125.141C34.492 125.559 33.6114 125.812 32.6783 125.901C31.7452 125.989 30.802 125.86 29.8485 125.515C28.8761 125.17 27.9405 124.551 27.0416 123.658C26.1048 122.728 25.4601 121.75 25.1076 120.724C24.7361 119.697 24.6475 118.67 24.8418 117.642C25.0267 116.623 25.4804 115.664 26.2031 114.766L28.2328 116.781C27.8388 117.329 27.6146 117.896 27.5602 118.48C27.4869 119.065 27.5691 119.635 27.8068 120.191C28.0351 120.756 28.4 121.287 28.9015 121.785C29.4125 122.292 29.9559 122.653 30.5318 122.868C31.0983 123.092 31.6737 123.175 32.2581 123.116C32.8424 123.057 33.4216 122.881 33.9956 122.586C34.5602 122.283 35.1055 121.866 35.6316 121.336C36.1389 120.825 36.5423 120.286 36.842 119.719C37.1321 119.143 37.3044 118.553 37.3588 117.95C37.4038 117.356 37.3168 116.771 37.0979 116.197C36.8695 115.613 36.4903 115.058 35.9604 114.532C35.1845 113.762 34.3438 113.303 33.4381 113.156C32.5136 113.008 31.6517 113.223 30.8524 113.801L28.8228 111.786C29.6501 111.142 30.5725 110.715 31.59 110.504C32.6075 110.293 33.6542 110.355 34.7302 110.69C35.8063 111.026 36.8363 111.682 37.8204 112.659Z" fill="white"/>
<path d="M30.8591 104.722L20.1915 111.238L18.7112 108.814L29.3788 102.299L30.8591 104.722ZM22.7325 114.631L20.5989 115.934L14.7194 106.307L16.8529 105.004L22.7325 114.631Z" fill="white"/>
<path d="M25.3233 92.4553C25.7318 93.6824 25.881 94.785 25.771 95.7632C25.6568 96.7287 25.3318 97.5466 24.7961 98.2167C24.2477 98.8911 23.537 99.3736 22.6641 99.6642L21.7861 97.0265C22.1529 96.9044 22.4798 96.6832 22.7666 96.3629C23.0408 96.0467 23.2117 95.6315 23.2794 95.1171C23.3429 94.5901 23.2525 93.9597 23.0082 93.226C22.7892 92.5681 22.5111 92.0494 22.174 91.6698C21.8368 91.2902 21.4806 91.0434 21.1054 90.9294C20.7175 90.8196 20.3275 90.83 19.9353 90.9606C19.442 91.1248 19.1193 91.4641 18.9673 91.9784C18.8026 92.497 18.8277 93.2054 19.0423 94.1035L19.3518 95.3496C19.6801 96.7158 19.6227 97.9153 19.1796 98.9482C18.7196 99.9726 17.9013 100.681 16.7248 101.072C15.8393 101.367 15.0107 101.411 14.2392 101.204C13.4551 101.001 12.768 100.584 12.1779 99.951C11.571 99.3099 11.0991 98.4833 10.7622 97.4713C10.4126 96.4212 10.295 95.4556 10.4091 94.5745C10.5233 93.6933 10.8462 92.9324 11.3777 92.2917C11.8966 91.6552 12.6051 91.1875 13.5033 90.8885L14.3814 93.5262C14.0019 93.6525 13.6855 93.8632 13.4324 94.1582C13.1625 94.4448 12.9937 94.8032 12.9261 95.2332C12.8416 95.6548 12.892 96.1439 13.0773 96.7006C13.2542 97.2319 13.4901 97.6452 13.7851 97.9405C14.0802 98.2357 14.409 98.4214 14.7715 98.4974C15.1341 98.5734 15.4925 98.5525 15.8467 98.4346C16.2769 98.2914 16.6038 98.0069 16.8274 97.5812C17.0384 97.1596 17.0555 96.5988 16.8786 95.8988L16.5882 94.6465C16.3356 93.6344 16.2559 92.6984 16.349 91.8383C16.4421 90.9782 16.7122 90.2488 17.1594 89.6503C17.6023 89.0391 18.235 88.5966 19.0573 88.3229C19.9302 88.0323 20.7777 88.0031 21.5998 88.2353C22.4092 88.4718 23.1385 88.9527 23.7875 89.6782C24.4323 90.391 24.9443 91.3167 25.3233 92.4553Z" fill="white"/>
<path d="M22.5415 69.0325L7.36493 71.1652L7.86043 68.2673L20.9702 66.5928L20.4343 67.3534L20.7984 65.2243L21.0477 66.1394L9.1885 60.5L9.66714 57.7006L23.3302 64.4195L22.5415 69.0325Z" fill="white"/>
<path d="M24.8915 58.7866L11.203 53.7089L12.1907 51.0462L25.8793 56.1239L24.8915 58.7866Z" fill="white"/>
<path d="M26.9455 53.2403L14.2405 46.0472L15.6101 43.628L28.3152 50.8211L26.9455 53.2403ZM28.1181 51.1692L26.0296 49.9868L29.2911 44.226L31.3796 45.4084L28.1181 51.1692ZM22.7054 48.1047L20.6169 46.9223L23.6222 41.614L25.7107 42.7964L22.7054 48.1047ZM17.5015 45.1585L15.413 43.9761L18.5957 38.3545L20.6842 39.537L17.5015 45.1585Z" fill="white"/>
<path d="M33.1887 42.567L20.3191 34.7329L22.4205 32.6768L33.461 39.6423L32.5818 39.8591L34.0113 38.4603L33.704 39.4046L26.915 29.0628L28.659 27.3563L36.3623 39.4618L33.1887 42.567ZM39.4215 36.4686L27.301 28.6851L29.1165 26.9087L39.5652 33.6698L38.6287 33.9425L40.0297 32.5717L39.8082 33.4321L32.8276 22.4942L34.8147 20.5499L42.6523 33.3075L39.4215 36.4686Z" fill="white"/>
<path d="M50.8521 23.4552L49.9193 21.179L52.5472 20.102C53.0777 19.8846 53.4789 19.5977 53.7507 19.2414C54.0349 18.88 54.1936 18.4763 54.227 18.0303C54.2727 17.5793 54.197 17.1132 53.9998 16.632C53.8026 16.1509 53.5295 15.7657 53.1804 15.4764C52.8437 15.1821 52.4498 15.0121 51.9988 14.9664C51.555 14.9033 51.0679 14.9805 50.5374 15.1979L47.9095 16.2748L46.9767 13.9985L49.3825 13.0126C50.5175 12.5475 51.5557 12.3381 52.497 12.3847C53.4506 12.4262 54.2787 12.7064 54.9813 13.2254C55.6789 13.7321 56.2198 14.4542 56.6041 15.3919L56.7254 15.688C57.1097 16.6256 57.2336 17.5258 57.0973 18.3887C56.9559 19.2391 56.5626 20.0199 55.9174 20.731C55.2795 21.4247 54.393 22.0042 53.2579 22.4693L50.8521 23.4552ZM50.2932 28.5259L44.7189 14.9238L47.3468 13.8469L52.9211 27.449L50.2932 28.5259Z" fill="white"/>
<path d="M61.7077 24.0228L59.5641 9.47998L62.3737 9.06582L64.5174 23.6087L61.7077 24.0228ZM70.5324 22.722L65.1728 17.0833L68.3188 16.6196L73.8169 22.2379L70.5324 22.722ZM62.9747 18.9033L62.6393 16.6279L66.3195 16.0854C66.834 16.0096 67.2603 15.839 67.5986 15.5735C67.95 15.306 68.203 14.9655 68.3577 14.5518C68.5124 14.1382 68.5537 13.6873 68.4818 13.1993C68.4079 12.698 68.2372 12.2717 67.9698 11.9203C67.7023 11.5688 67.3618 11.3158 66.9482 11.1611C66.5477 11.0045 66.0903 10.9641 65.5758 11.04L61.8956 11.5824L61.5427 9.18832L64.9261 8.68958C66.0869 8.51848 67.1147 8.54218 68.0095 8.7607C68.9174 8.97728 69.6538 9.4011 70.2185 10.0322C70.7832 10.6632 71.1434 11.5064 71.2989 12.5616L71.3456 12.8782C71.5031 13.9467 71.3949 14.8589 71.0212 15.6148C70.6606 16.3688 70.0835 16.9794 69.2898 17.4468C68.4962 17.9142 67.519 18.2335 66.3582 18.4046L62.9747 18.9033Z" fill="white"/>
<path d="M81.3887 23.3522C80.0793 23.1848 78.9715 22.808 78.0652 22.2216C77.1721 21.637 76.4555 20.9338 75.9154 20.112C75.3902 19.2786 75.0238 18.4118 74.8163 17.5116C74.6237 16.5998 74.579 15.7405 74.6821 14.9338L74.7379 14.4973C74.8512 13.6112 75.1223 12.752 75.5514 11.9197C75.9821 11.0741 76.5605 10.3348 77.2866 9.70181C78.026 9.07048 78.8989 8.60407 79.9052 8.30259C80.9133 7.98789 82.0587 7.91254 83.3416 8.07656C84.6113 8.23888 85.6943 8.59914 86.5908 9.15733C87.4889 9.70229 88.2098 10.3725 88.7533 11.1678C89.3101 11.9648 89.6905 12.8267 89.8946 13.7534C90.1004 14.6669 90.1467 15.5667 90.0334 16.4528L89.9776 16.8893C89.8745 17.696 89.6084 18.5156 89.1794 19.3479C88.7653 20.1687 88.1926 20.9154 87.4614 21.5881C86.7451 22.2493 85.8746 22.7496 84.85 23.089C83.8386 23.4302 82.6848 23.5179 81.3887 23.3522ZM81.7235 20.7335C82.4641 20.8282 83.1423 20.7805 83.758 20.5904C84.387 20.402 84.9361 20.1025 85.4053 19.692C85.8894 19.27 86.2753 18.775 86.563 18.2069C86.8656 17.6272 87.06 17.0002 87.1462 16.3256C87.2392 15.5982 87.2122 14.916 87.0651 14.2788C86.9313 13.6434 86.6815 13.0738 86.3158 12.57C85.9633 12.0679 85.5055 11.6532 84.9425 11.3258C84.3795 10.9984 83.7342 10.7882 83.0068 10.6952C82.2662 10.6006 81.5822 10.6408 80.955 10.816C80.3277 10.9912 79.7737 11.2766 79.293 11.6722C78.8255 12.0694 78.4404 12.5579 78.1378 13.1375C77.8484 13.7188 77.6572 14.3732 77.5642 15.1006C77.478 15.7751 77.5018 16.4301 77.6356 17.0655C77.7844 17.6894 78.0333 18.2656 78.3824 18.7942C78.7465 19.3112 79.2092 19.74 79.7705 20.0806C80.3318 20.4212 80.9828 20.6388 81.7235 20.7335Z" fill="white"/>
<path d="M94.577 26.6751C93.6024 26.2757 92.8233 25.7331 92.2398 25.0473C91.6563 24.3614 91.3126 23.565 91.2088 22.6579C91.1051 21.7508 91.2731 20.7605 91.713 19.6872L91.9557 19.095L94.5651 20.1643L94.2314 20.9786C93.9381 21.6942 93.9153 22.3477 94.1629 22.939C94.4155 23.5181 94.8811 23.9466 95.5596 24.2247C96.2505 24.5079 96.883 24.5293 97.457 24.289C98.0483 24.0414 98.4907 23.5599 98.7839 22.8443L101.719 15.6824L104.347 16.7593L101.503 23.6991C101.063 24.7725 100.488 25.5959 99.7773 26.1693C99.0668 26.7427 98.2692 27.0715 97.3845 27.1556C96.4999 27.2398 95.564 27.0796 94.577 26.6751ZM96.0524 13.7924L97.0004 11.4791L105.143 14.8161L104.195 17.1294L96.0524 13.7924Z" fill="white"/>
<path d="M101.281 29.2595L109.477 17.1766L111.777 18.7371L103.582 30.82L101.281 29.2595ZM103.251 30.5955L104.598 28.6092L110.077 32.3252L108.73 34.3114L103.251 30.5955ZM106.742 25.4478L108.089 23.4616L113.138 26.8856L111.791 28.8719L106.742 25.4478ZM110.099 20.4988L111.446 18.5125L116.792 22.1387L115.445 24.1249L110.099 20.4988Z" fill="white"/>
<path d="M114.185 40.275C113.293 39.3018 112.7 38.3086 112.404 37.2954C112.109 36.2821 112.033 35.3021 112.179 34.3553C112.333 33.4183 112.64 32.5494 113.099 31.7484C113.559 30.9474 114.088 30.2722 114.688 29.7227L115.013 29.4254C115.681 28.8129 116.434 28.3125 117.272 27.9244C118.119 27.5461 119.011 27.335 119.947 27.2909C120.883 27.2468 121.819 27.4198 122.755 27.8098C123.71 28.2006 124.616 28.863 125.471 29.7968C126.363 30.77 126.961 31.7775 127.265 32.8194C127.587 33.8621 127.627 34.8925 127.385 35.9106C127.152 36.9196 126.653 37.8557 125.889 38.7189L123.957 36.6104C124.376 36.0813 124.627 35.526 124.709 34.9445C124.81 34.3638 124.755 33.7905 124.543 33.2245C124.342 32.6494 124.003 32.1014 123.525 31.5804C123.039 31.0496 122.513 30.6633 121.948 30.4216C121.392 30.1709 120.822 30.0611 120.235 30.0921C119.649 30.1231 119.062 30.2721 118.475 30.539C117.896 30.8158 117.332 31.2064 116.781 31.7109C116.25 32.1973 115.822 32.7165 115.496 33.2685C115.179 33.8303 114.979 34.4114 114.896 35.0118C114.823 35.6031 114.882 36.1908 115.074 36.7748C115.275 37.3687 115.627 37.9409 116.132 38.4914C116.87 39.2974 117.688 39.7955 118.586 39.9857C119.503 40.1767 120.374 40.0024 121.199 39.4627L123.132 41.5713C122.275 42.1756 121.333 42.5592 120.307 42.722C119.281 42.8849 118.238 42.7733 117.179 42.3874C116.12 42.0014 115.122 41.2973 114.185 40.275Z" fill="white"/>
<path d="M120.826 48.5725L131.793 42.5752L133.156 45.067L122.188 51.0642L120.826 48.5725ZM129.417 39.0645L131.611 37.8651L137.023 47.762L134.829 48.9615L129.417 39.0645Z" fill="white"/>
<path d="M125.822 61.2117C125.474 59.966 125.379 58.8574 125.537 57.8858C125.699 56.9271 126.063 56.1262 126.631 55.4831C127.212 54.8365 127.946 54.3895 128.832 54.1421L129.579 56.8197C129.207 56.9237 128.869 57.1286 128.567 57.4345C128.278 57.7367 128.087 58.1431 127.994 58.6535C127.905 59.1768 127.964 59.8108 128.172 60.5557C128.358 61.2235 128.611 61.7553 128.929 62.151C129.247 62.5467 129.59 62.8107 129.96 62.9429C130.342 63.0716 130.732 63.0804 131.13 62.9693C131.631 62.8295 131.97 62.5064 132.147 62.0002C132.337 61.4904 132.346 60.7816 132.176 59.874L131.928 58.6142C131.667 57.2335 131.784 56.0383 132.277 55.0284C132.787 54.0279 133.639 53.3609 134.833 53.0275C135.732 52.7765 136.562 52.7733 137.322 53.0179C138.095 53.2588 138.761 53.7098 139.319 54.3707C139.894 55.0408 140.325 55.8896 140.612 56.917C140.909 57.9829 140.979 58.9531 140.822 59.8276C140.665 60.7021 140.305 61.4463 139.742 62.0601C139.193 62.6703 138.462 63.1027 137.551 63.3572L136.803 60.6796C137.188 60.572 137.515 60.3771 137.782 60.0949C138.066 59.8219 138.252 59.4723 138.34 59.0461C138.446 58.6291 138.419 58.1381 138.262 57.5731C138.111 57.0337 137.896 56.6093 137.615 56.2999C137.335 55.9905 137.016 55.7889 136.658 55.6952C136.299 55.6014 135.94 55.6047 135.581 55.7051C135.144 55.827 134.803 56.0951 134.559 56.5093C134.328 56.92 134.283 57.4793 134.425 58.1871L134.654 59.4522C134.856 60.4754 134.89 61.4143 134.755 62.2688C134.62 63.1233 134.314 63.8385 133.838 64.4143C133.366 65.003 132.712 65.4139 131.877 65.6469C130.991 65.8943 130.143 65.8818 129.334 65.6095C128.537 65.3336 127.832 64.8174 127.219 64.0609C126.61 63.3173 126.144 62.3676 125.822 61.2117Z" fill="white"/>
</svg>
