<svg width="95" height="95" viewBox="0 0 95 95" fill="none" xmlns="http://www.w3.org/2000/svg">
<path d="M71.4571 44.5313C75.0137 44.5313 77.9793 44.5309 80.3337 44.8475C82.8187 45.1816 85.0623 45.9167 86.8649 47.7197C88.668 49.5223 89.403 51.7659 89.7371 54.2509C90.0538 56.6054 90.0534 59.5709 90.0534 63.1275V63.5392C90.0534 67.0957 90.0538 70.0613 89.7371 72.4157C89.403 74.9008 88.668 77.1444 86.8649 78.947C85.0623 80.75 82.8187 81.4851 80.3337 81.8191C77.9793 82.1358 75.0137 82.1354 71.4571 82.1354H71.0455C67.4889 82.1354 64.5233 82.1358 62.1689 81.8191C59.6839 81.4851 57.4403 80.75 55.6377 78.947C53.8346 77.1444 53.0996 74.9008 52.7655 72.4157C52.4488 70.0613 52.4492 67.0957 52.4492 63.5392V63.1275C52.4492 59.5709 52.4488 56.6054 52.7655 54.2509C53.0996 51.7659 53.8346 49.5223 55.6377 47.7197C57.4403 45.9167 59.6839 45.1816 62.1689 44.8475C64.5233 44.5309 67.4889 44.5313 71.0455 44.5313H71.4571Z" fill="#091E42"/>
<path fill-rule="evenodd" clip-rule="evenodd" d="M83.9366 15.6469C84.5869 17.734 83.4224 19.9533 81.3352 20.6037C69.0342 24.4372 60.3659 35.3301 60.3659 47.9476V64.3248C60.3659 66.511 58.5937 68.2831 56.4076 68.2831C54.2214 68.2831 52.4492 66.511 52.4492 64.3248V47.9476C52.4492 31.535 63.6972 17.8083 78.9799 13.0455C81.0668 12.3951 83.2862 13.5598 83.9366 15.6469Z" fill="#091E42"/>
<path d="M23.9573 44.5313C27.5137 44.5313 30.4793 44.5309 32.8336 44.8475C35.3187 45.1816 37.5622 45.9167 39.3652 47.7197C41.168 49.5223 41.903 51.7659 42.2371 54.2509C42.5538 56.6054 42.5534 59.5709 42.5534 63.1275V63.5392C42.5534 67.0957 42.5538 70.0613 42.2371 72.4157C41.903 74.9008 41.168 77.1444 39.3652 78.947C37.5622 80.75 35.3187 81.4851 32.8336 81.8191C30.4793 82.1358 27.5137 82.1354 23.9573 82.1354H23.5455C19.9891 82.1354 17.0233 82.1358 14.669 81.8191C12.184 81.4851 9.9404 80.75 8.1375 78.947C6.3346 77.1444 5.59966 74.9008 5.26553 72.4157C4.94903 70.0613 4.9491 67.0957 4.94922 63.5392V63.1275C4.9491 59.5709 4.94903 56.6054 5.26553 54.2509C5.59966 51.7659 6.3346 49.5223 8.1375 47.7197C9.9404 45.9167 12.184 45.1816 14.669 44.8475C17.0233 44.5309 19.9889 44.5313 23.5454 44.5313H23.9573Z" fill="#091E42"/>
<path fill-rule="evenodd" clip-rule="evenodd" d="M36.4366 15.6469C37.087 17.734 35.9224 19.9533 33.8353 20.6037C21.5341 24.4372 12.8659 35.3301 12.8659 47.9476V64.3248C12.8659 66.511 11.0937 68.2831 8.90755 68.2831C6.72144 68.2831 4.94922 66.511 4.94922 64.3248V47.9476C4.94922 31.535 16.1971 17.8083 31.4798 13.0455C33.567 12.3951 35.7862 13.5598 36.4366 15.6469Z" fill="#091E42"/>
</svg>
