<svg width="45" height="44" viewBox="0 0 45 44" fill="none" xmlns="http://www.w3.org/2000/svg">
<circle cx="22.75" cy="22" r="22" fill="#1E2D40"/>
<path d="M7.662 26V24.56C7.662 24.208 7.71 23.908 7.806 23.66C7.91 23.412 8.086 23.188 8.334 22.988C8.582 22.78 8.918 22.58 9.342 22.388L10.986 21.632C11.386 21.448 11.702 21.212 11.934 20.924C12.166 20.628 12.282 20.248 12.282 19.784C12.282 19.224 12.126 18.788 11.814 18.476C11.502 18.164 11.062 18.008 10.494 18.008C9.934 18.008 9.494 18.164 9.174 18.476C8.854 18.788 8.694 19.224 8.694 19.784H7.566C7.566 19.28 7.67 18.816 7.878 18.392C8.094 17.968 8.418 17.632 8.85 17.384C9.282 17.128 9.83 17 10.494 17C11.158 17 11.702 17.128 12.126 17.384C12.558 17.632 12.878 17.96 13.086 18.368C13.302 18.776 13.41 19.22 13.41 19.7V19.868C13.41 20.5 13.226 21.032 12.858 21.464C12.498 21.896 12.01 22.252 11.394 22.532L9.75 23.288C9.382 23.456 9.134 23.624 9.006 23.792C8.878 23.96 8.814 24.184 8.814 24.464V25.568L8.502 25.016H13.518V26H7.662ZM18.632 26.216C17.976 26.216 17.416 26.104 16.952 25.88C16.496 25.648 16.124 25.336 15.836 24.944C15.556 24.552 15.352 24.1 15.224 23.588C15.096 23.068 15.032 22.52 15.032 21.944V21.296C15.032 20.488 15.156 19.76 15.404 19.112C15.66 18.464 16.052 17.952 16.58 17.576C17.116 17.192 17.8 17 18.632 17C19.464 17 20.144 17.192 20.672 17.576C21.2 17.952 21.588 18.464 21.836 19.112C22.092 19.76 22.22 20.488 22.22 21.296V21.944C22.22 22.52 22.156 23.068 22.028 23.588C21.9 24.1 21.692 24.552 21.404 24.944C21.124 25.336 20.756 25.648 20.3 25.88C19.844 26.104 19.288 26.216 18.632 26.216ZM18.632 25.16C19.464 25.16 20.072 24.88 20.456 24.32C20.848 23.752 21.044 22.856 21.044 21.632C21.044 20.352 20.844 19.436 20.444 18.884C20.052 18.332 19.448 18.056 18.632 18.056C17.808 18.056 17.196 18.332 16.796 18.884C16.404 19.436 16.208 20.344 16.208 21.608C16.208 22.84 16.404 23.74 16.796 24.308C17.188 24.876 17.8 25.16 18.632 25.16ZM28.6059 26L26.1939 23.012H25.1379L28.0779 19.592H29.2899L26.6259 22.676L26.7099 22.064L29.9379 26H28.6059ZM24.1899 26V17.24H25.3419V26H24.1899ZM33.0128 24.728V19.016H33.9968V24.728H33.0128ZM30.7568 22.328V21.416H36.2528V22.328H30.7568Z" fill="white"/>
</svg>
